<svg xmlns="http://www.w3.org/2000/svg" viewBox="0 0 491.695 491.695"><path d="M436.714 0H149.471c-16.438 0-29.812 13.374-29.812 29.812v66.714C65.169 112.12 25.17 162.383 25.17 221.814s39.998 109.694 94.489 125.288v114.783c0 16.438 13.374 29.812 29.812 29.812h234.733c2.785 0 5.455-1.106 7.425-3.075L463.45 416.8a10.5 10.5 0 0 0 3.075-7.425V29.812C466.525 13.374 453.152 0 436.714 0zM149.471 21h287.243c4.858 0 8.811 3.953 8.811 8.812v31.689H140.659V29.812c0-4.859 3.953-8.812 8.812-8.812zM46.17 221.813c0-60.263 49.027-109.29 109.29-109.29 60.263 0 109.29 49.027 109.29 109.29s-49.027 109.291-109.29 109.291c-60.263 0-109.29-49.028-109.29-109.291zm94.489 240.071V351.258c4.86.552 9.797.846 14.802.846 39.135 0 74.292-17.347 98.195-44.752h64.336c5.799 0 10.5-4.701 10.5-10.5s-4.701-10.5-10.5-10.5h-49.381a129.347 129.347 0 0 0 16.644-53.242h32.736c5.799 0 10.5-4.701 10.5-10.5s-4.701-10.5-10.5-10.5h-32.603a129.335 129.335 0 0 0-15.886-53.241h48.488c5.799 0 10.5-4.701 10.5-10.5s-4.701-10.5-10.5-10.5h-62.974c-23.918-28.323-59.67-46.347-99.558-46.347-5.005 0-9.942.294-14.802.846v-9.867h304.866v316.372h-42.009c-16.439 0-29.811 13.374-29.811 29.811v42.011H149.471c-4.859 0-8.812-3.952-8.812-8.811zm254.046-6.039v-27.16c0-4.859 3.953-8.811 8.811-8.811h27.16l-35.971 35.971z"/><path d="M359.246 158.869h34.87c5.799 0 10.5-4.701 10.5-10.5s-4.701-10.5-10.5-10.5h-34.87c-5.799 0-10.5 4.701-10.5 10.5s4.701 10.5 10.5 10.5zm0 74.241h34.87c5.799 0 10.5-4.701 10.5-10.5s-4.701-10.5-10.5-10.5h-34.87c-5.799 0-10.5 4.701-10.5 10.5s4.701 10.5 10.5 10.5zm0 74.242h34.87c5.799 0 10.5-4.701 10.5-10.5s-4.701-10.5-10.5-10.5h-34.87c-5.799 0-10.5 4.701-10.5 10.5s4.701 10.5 10.5 10.5zm34.87 74.241c5.799 0 10.5-4.701 10.5-10.5s-4.701-10.5-10.5-10.5h-98.225c-5.799 0-10.5 4.701-10.5 10.5s4.701 10.5 10.5 10.5h98.225zM236.982 168.845l-12.81-12.81c-3.45-3.449-8.036-5.349-12.915-5.349s-9.465 1.9-12.915 5.349l-67.19 67.19-18.573-18.573a18.148 18.148 0 0 0-12.914-5.348c-4.878 0-9.465 1.9-12.914 5.349l-12.813 12.812c-7.12 7.121-7.12 18.708.001 25.829l44.297 44.296a18.143 18.143 0 0 0 12.916 5.351h.001c4.878 0 9.465-1.9 12.913-5.349l92.917-92.917c7.12-7.121 7.12-18.709-.001-25.83zM131.151 270.807l-40.429-40.428 8.942-8.942 24.062 24.062c4.101 4.101 10.749 4.101 14.85 0l72.681-72.681 8.942 8.942-89.048 89.047z"/></svg>