<?xml version="1.0" encoding="iso-8859-1"?>
<!-- Generator: Adobe Illustrator 19.0.0, SVG Export Plug-In . SVG Version: 6.00 Build 0)  -->
<svg xmlns="http://www.w3.org/2000/svg" xmlns:xlink="http://www.w3.org/1999/xlink" version="1.1" id="Capa_1" x="0px" y="0px" viewBox="0 0 463 463" style="enable-background:new 0 0 463 463;" xml:space="preserve" width="512px" height="512px">
<g>
	<path d="M439.5,382.51H431v-8.5c0-12.958-10.542-23.5-23.5-23.5h-80c-12.958,0-23.5,10.542-23.5,23.5v8.5h-8.5   c-12.958,0-23.5,10.542-23.5,23.5v16c0,4.142,3.358,7.5,7.5,7.5h176c4.142,0,7.5-3.358,7.5-7.5v-16   C463,393.052,452.458,382.51,439.5,382.51z M319,374.01c0-4.687,3.813-8.5,8.5-8.5h80c4.687,0,8.5,3.813,8.5,8.5v8.5h-97V374.01z    M448,414.51H287v-8.5c0-4.687,3.813-8.5,8.5-8.5h144c4.687,0,8.5,3.813,8.5,8.5V414.51z" fill="#FFFFFF"/>
	<path d="M287.001,221.039l-0.354,0.354c-9.163,9.163-9.163,24.071,0,33.233c4.438,4.438,10.34,6.883,16.617,6.883   c6.277,0,12.178-2.445,16.617-6.883l45.255-45.254c4.438-4.438,6.883-10.34,6.883-16.617s-2.445-12.179-6.883-16.617   c-4.438-4.438-10.34-6.883-16.617-6.883c-6.277,0-12.179,2.445-16.617,6.883l-0.353,0.354l-17.396-17.397   c1.497-5.241,0.192-11.121-3.928-15.241l-48.569-48.569c-4.12-4.12-10-5.425-15.241-3.927l-17.397-17.396l0.353-0.354   c4.438-4.438,6.883-10.34,6.883-16.617c0-6.277-2.445-12.178-6.883-16.617c-4.438-4.438-10.34-6.883-16.617-6.883   s-12.179,2.445-16.617,6.883l-45.254,45.255c-4.438,4.438-6.883,10.34-6.883,16.617c0,6.277,2.445,12.179,6.883,16.617   c4.581,4.582,10.599,6.872,16.617,6.872s12.036-2.291,16.617-6.872l0.354-0.354l17.392,17.392   c-0.394,1.377-0.607,2.814-0.607,4.286c0,4.141,1.612,8.033,4.54,10.96l2.01,2.01l-15.549,15.55   c-4.962,4.962-7.213,11.607-6.801,18.114L6.883,365.393C2.445,369.831,0,375.732,0,382.01s2.445,12.179,6.883,16.617   c4.438,4.438,10.34,6.883,16.617,6.883s12.179-2.445,16.617-6.883l178.572-178.572c0.499,0.031,0.998,0.071,1.497,0.071   c6.017,0,12.036-2.291,16.617-6.872l15.55-15.549l2.01,2.01c2.928,2.928,6.82,4.541,10.96,4.541c1.472,0,2.909-0.213,4.286-0.607   L287.001,221.039z M348.519,184.259c2.177,0,4.354,0.829,6.011,2.486c1.605,1.605,2.49,3.739,2.49,6.01s-0.884,4.405-2.49,6.011   l-45.255,45.254c-3.315,3.315-8.707,3.314-12.021,0s-3.314-8.707,0-12.021l45.255-45.255   C344.166,185.087,346.342,184.259,348.519,184.259z M297.608,210.433l-16.021-16.021l23.335-23.335l16.021,16.021L297.608,210.433z    M161.49,108.256c-3.314-3.314-3.314-8.707,0-12.021l45.254-45.255c1.605-1.605,3.74-2.49,6.011-2.49s4.405,0.884,6.01,2.49   c3.314,3.314,3.314,8.707,0,12.021l-45.255,45.255C170.196,111.569,164.804,111.569,161.49,108.256z M218.412,84.567l16.021,16.021   l-23.335,23.335l-16.021-16.021L218.412,84.567z M29.51,388.02c-1.605,1.605-3.739,2.49-6.01,2.49s-4.405-0.884-6.01-2.49   c-1.605-1.605-2.49-3.739-2.49-6.01s0.884-4.405,2.49-6.01l174.43-174.431c0.116,0.121,0.216,0.252,0.336,0.372l11.313,11.313   c0.119,0.119,0.25,0.219,0.372,0.336L29.51,388.02z M226.197,202.647c-3.314,3.314-8.706,3.314-12.021,0l-11.313-11.313   c-3.314-3.314-3.314-8.707,0-12.021l15.549-15.55l23.335,23.335L226.197,202.647z M216.401,140.54   c-0.036-0.036-0.146-0.146-0.146-0.353s0.11-0.318,0.146-0.354l33.941-33.941c0.098-0.097,0.226-0.146,0.354-0.146   c0.128,0,0.256,0.049,0.354,0.146l48.568,48.568c0.195,0.195,0.195,0.513,0,0.708l-33.941,33.941   c-0.036,0.036-0.147,0.146-0.354,0.146s-0.317-0.11-0.354-0.146L216.401,140.54z" fill="#FFFFFF"/>
</g>
<g>
</g>
<g>
</g>
<g>
</g>
<g>
</g>
<g>
</g>
<g>
</g>
<g>
</g>
<g>
</g>
<g>
</g>
<g>
</g>
<g>
</g>
<g>
</g>
<g>
</g>
<g>
</g>
<g>
</g>
</svg>
