<svg xmlns="http://www.w3.org/2000/svg" viewBox="0 0 463 463" width="512" height="512"><path d="M439.5 382.51H431v-8.5c0-12.958-10.542-23.5-23.5-23.5h-80c-12.958 0-23.5 10.542-23.5 23.5v8.5h-8.5c-12.958 0-23.5 10.542-23.5 23.5v16a7.5 7.5 0 0 0 7.5 7.5h176a7.5 7.5 0 0 0 7.5-7.5v-16c0-12.958-10.542-23.5-23.5-23.5zm-120.5-8.5c0-4.687 3.813-8.5 8.5-8.5h80c4.687 0 8.5 3.813 8.5 8.5v8.5h-97v-8.5zm129 40.5H287v-8.5c0-4.687 3.813-8.5 8.5-8.5h144c4.687 0 8.5 3.813 8.5 8.5v8.5zM287.001 221.039l-.354.354c-9.163 9.163-9.163 24.071 0 33.233a23.348 23.348 0 0 0 16.617 6.883 23.35 23.35 0 0 0 16.617-6.883l45.255-45.254c4.438-4.438 6.883-10.34 6.883-16.617s-2.445-12.179-6.883-16.617a23.348 23.348 0 0 0-16.617-6.883 23.348 23.348 0 0 0-16.617 6.883l-.353.354-17.396-17.397c1.497-5.241.192-11.121-3.928-15.241l-48.569-48.569c-4.12-4.12-10-5.425-15.241-3.927l-17.397-17.396.353-.354a23.348 23.348 0 0 0 6.883-16.617 23.35 23.35 0 0 0-6.883-16.617c-4.438-4.438-10.34-6.883-16.617-6.883s-12.179 2.445-16.617 6.883l-45.254 45.255A23.348 23.348 0 0 0 144 102.246a23.348 23.348 0 0 0 6.883 16.617c4.581 4.582 10.599 6.872 16.617 6.872s12.036-2.291 16.617-6.872l.354-.354 17.392 17.392a15.557 15.557 0 0 0-.607 4.286c0 4.141 1.612 8.033 4.54 10.96l2.01 2.01-15.549 15.55c-4.962 4.962-7.213 11.607-6.801 18.114L6.883 365.393C2.445 369.831 0 375.732 0 382.01s2.445 12.179 6.883 16.617c4.438 4.438 10.34 6.883 16.617 6.883s12.179-2.445 16.617-6.883l178.572-178.572c.499.031.998.071 1.497.071 6.017 0 12.036-2.291 16.617-6.872l15.55-15.549 2.01 2.01a15.399 15.399 0 0 0 10.96 4.541c1.472 0 2.909-.213 4.286-.607l17.392 17.39zm61.518-36.78c2.177 0 4.354.829 6.011 2.486 1.605 1.605 2.49 3.739 2.49 6.01s-.884 4.405-2.49 6.011l-45.255 45.254c-3.315 3.315-8.707 3.314-12.021 0s-3.314-8.707 0-12.021l45.255-45.255a8.472 8.472 0 0 1 6.01-2.485zm-50.911 26.174l-16.021-16.021 23.335-23.335 16.021 16.021-23.335 23.335zM161.49 108.256c-3.314-3.314-3.314-8.707 0-12.021l45.254-45.255c1.605-1.605 3.74-2.49 6.011-2.49s4.405.884 6.01 2.49c3.314 3.314 3.314 8.707 0 12.021l-45.255 45.255c-3.314 3.313-8.706 3.313-12.02 0zm56.922-23.689l16.021 16.021-23.335 23.335-16.021-16.021 23.335-23.335zM29.51 388.02c-1.605 1.605-3.739 2.49-6.01 2.49s-4.405-.884-6.01-2.49c-1.605-1.605-2.49-3.739-2.49-6.01s.884-4.405 2.49-6.01l174.43-174.431c.116.121.216.252.336.372l11.313 11.313c.119.119.25.219.372.336L29.51 388.02zm196.687-185.373c-3.314 3.314-8.706 3.314-12.021 0l-11.313-11.313c-3.314-3.314-3.314-8.707 0-12.021l15.549-15.55 23.335 23.335-15.55 15.549zm-9.796-62.107c-.036-.036-.146-.146-.146-.353s.11-.318.146-.354l33.941-33.941a.502.502 0 0 1 .708 0l48.568 48.568a.502.502 0 0 1 0 .708l-33.941 33.941c-.036.036-.147.146-.354.146s-.317-.11-.354-.146l-48.568-48.569z" fill="#FFF"/></svg>