<svg id="_x36_29dcec7-c063-4496-b40c-d8a33d01e794" xmlns="http://www.w3.org/2000/svg" viewBox="0 0 873.6 795"><style>.st0{opacity:.5}.st1{fill:url(#SVGID_1_)}.st2{fill:#fff}.st3{fill:url(#SVGID_2_)}.st4{fill:url(#SVGID_3_)}.st5{fill:#9a1144}.st6{fill:url(#SVGID_4_)}.st7{fill:url(#SVGID_5_)}.st8{fill:url(#SVGID_6_)}.st9{fill:#4caf50}.st10{fill:#e0e0e0}.st11{fill:url(#SVGID_7_)}.st12,.st13,.st14,.st15{fill:none;stroke:#ffc021;stroke-width:5;stroke-miterlimit:10}.st13{stroke-dasharray:11.54,11.54}.st14{stroke-dasharray:11.45,11.45}.st15{opacity:.5;stroke-dasharray:12;enable-background:new}.st16{fill:url(#SVGID_8_)}.st17{fill:url(#SVGID_9_)}.st18{fill:#fafafa}.st19{opacity:5e-2;enable-background:new}.st20{fill:#f5f5f5}.st21{fill:url(#SVGID_10_)}.st22{fill:url(#SVGID_11_)}</style><title>customer survey</title><g class="st0"><linearGradient id="SVGID_1_" gradientUnits="userSpaceOnUse" x1="441" y1="198" x2="441" y2="741" gradientTransform="matrix(1 0 0 -1 0 796)"><stop offset="0" stop-color="gray" stop-opacity=".25"/><stop offset=".54" stop-color="gray" stop-opacity=".12"/><stop offset="1" stop-color="gray" stop-opacity=".1"/></linearGradient><path class="st1" d="M244.5 55h393v543h-393z"/></g><path class="st2" d="M249.5 59h383v531h-383z"/><linearGradient id="SVGID_2_" gradientUnits="userSpaceOnUse" x1="441.5" y1="705" x2="441.5" y2="751.02" gradientTransform="matrix(1 0 0 -1 0 796)"><stop offset="0" stop-color="gray" stop-opacity=".25"/><stop offset=".54" stop-color="gray" stop-opacity=".12"/><stop offset="1" stop-color="gray" stop-opacity=".1"/></linearGradient><path class="st3" d="M346.5 45h190v46h-190z"/><linearGradient id="SVGID_3_" gradientUnits="userSpaceOnUse" x1="604.72" y1="689.1" x2="604.72" y2="743.5" gradientTransform="matrix(1 0 0 -1 -163.22 743.5)"><stop offset="0" stop-color="gray" stop-opacity=".25"/><stop offset=".54" stop-color="gray" stop-opacity=".12"/><stop offset="1" stop-color="gray" stop-opacity=".1"/></linearGradient><path class="st4" d="M441.5 0c-14.7 0-26.6 12.2-26.6 27.2s11.9 27.2 26.6 27.2 26.6-12.2 26.6-27.2S456.2 0 441.5 0zm0 42.9c-8.7.2-15.9-6.6-16.1-15.3s6.6-15.9 15.3-16.1c8.7-.2 15.9 6.6 16.1 15.3v.4c.1 8.5-6.8 15.6-15.3 15.7z"/><path class="st5" d="M348.5 45h186v44h-186z"/><path class="st5" d="M441.5 2c-14.4 0-26 11.6-26 26s11.6 26 26 26 26-11.6 26-26-11.6-26-26-26zm0 41c-8.3 0-15-6.7-15-15s6.7-15 15-15 15 6.7 15 15-6.7 15-15 15z"/><linearGradient id="SVGID_4_" gradientUnits="userSpaceOnUse" x1="308.5" y1="569" x2="308.5" y2="651" gradientTransform="matrix(1 0 0 -1 0 796)"><stop offset="0" stop-color="gray" stop-opacity=".25"/><stop offset=".54" stop-color="gray" stop-opacity=".12"/><stop offset="1" stop-color="gray" stop-opacity=".1"/></linearGradient><path class="st6" d="M267.5 145h82v82h-82z"/><linearGradient id="SVGID_5_" gradientUnits="userSpaceOnUse" x1="308.78" y1="406.5" x2="308.78" y2="488.5" gradientTransform="matrix(1 0 0 -1 0 796)"><stop offset="0" stop-color="gray" stop-opacity=".25"/><stop offset=".54" stop-color="gray" stop-opacity=".12"/><stop offset="1" stop-color="gray" stop-opacity=".1"/></linearGradient><path class="st7" d="M267.8 307.5h82v82h-82z"/><linearGradient id="SVGID_6_" gradientUnits="userSpaceOnUse" x1="309.06" y1="246" x2="309.06" y2="328" gradientTransform="matrix(1 0 0 -1 0 796)"><stop offset="0" stop-color="gray" stop-opacity=".25"/><stop offset=".54" stop-color="gray" stop-opacity=".12"/><stop offset="1" stop-color="gray" stop-opacity=".1"/></linearGradient><path class="st8" d="M268.1 468h82v82h-82z"/><path class="st9" d="M270.5 148h76v76h-76z"/><path class="st5" d="M270.5 309h76v76h-76zm0 161h76v76h-76z"/><path class="st10" d="M396.5 171.5h104.2v7.3H396.5zm0 10.9h172v7.3h-172zm0 10.9h159.9v7.3H396.5zm0 139.2h104.2v7.3H396.5zm0 10.9h172v7.3h-172zm0 10.9h159.9v7.3H396.5zm0 139.2h104.2v7.3H396.5zm0 10.9h172v7.3h-172zm0 10.9h159.9v7.3H396.5z"/><linearGradient id="SVGID_7_" gradientUnits="userSpaceOnUse" x1="308.5" y1="590.37" x2="308.5" y2="630.62" gradientTransform="matrix(1 0 0 -1 0 796)"><stop offset="0" stop-color="gray" stop-opacity=".25"/><stop offset=".54" stop-color="gray" stop-opacity=".12"/><stop offset="1" stop-color="gray" stop-opacity=".1"/></linearGradient><path class="st11" d="M291.3 181.5l13.7 12.6 19.6-28.7 6.9 5.7-26.5 34.5-19.5-21.8z"/><path class="st2" d="M293.5 182l12 11 17-25 6 5-23 30-17-19zm0 162l12 11 17-25 6 5-23 30-17-19zm0 162l12 11 17-25 6 5-23 30-17-19z"/><g class="st0"><path class="st12" d="M651 351h6"/><path class="st13" d="M668.5 351h132.7"/><path class="st12" d="M807 351h6v-6"/><path class="st14" d="M813 333.5V224.7"/><path class="st12" d="M813 219v-6"/></g><path class="st15" d="M231.5 182.5h-134v126m211 303v72h200"/><g class="st0"><linearGradient id="SVGID_8_" gradientUnits="userSpaceOnUse" x1="796.5" y1="603" x2="796.5" y2="754" gradientTransform="matrix(1 0 0 -1 0 796)"><stop offset="0" stop-color="gray" stop-opacity=".25"/><stop offset=".54" stop-color="gray" stop-opacity=".12"/><stop offset="1" stop-color="gray" stop-opacity=".1"/></linearGradient><path class="st16" d="M873.6 107.1L796.5 42l-75.9 64.9-.6-.3v.5h-.6l.6.3V193h153l-.9-.5h1.5z"/></g><path class="st2" d="M870.5 189.5h-147v-82l73-62.5 74 62.5z"/><path class="st10" d="M722.5 107.5l73 41 74-41"/><g class="st0"><linearGradient id="SVGID_9_" gradientUnits="userSpaceOnUse" x1="796.5" y1="620" x2="796.5" y2="727" gradientTransform="matrix(1 0 0 -1 0 796)"><stop offset="0" stop-color="gray" stop-opacity=".25"/><stop offset=".54" stop-color="gray" stop-opacity=".12"/><stop offset="1" stop-color="gray" stop-opacity=".1"/></linearGradient><path class="st17" d="M797 147.5L752 176V69h89v54.4z"/></g><path class="st18" d="M797 148l-43 28V71h85v53.4z"/><path class="st19" d="M723 189h147l-147-82z"/><path class="st20" d="M723 190h147l-147-82z"/><path class="st2" d="M765 87h62v4h-62zm0 8h62v4h-62z"/><path class="st5" d="M765 103h62v4h-62z"/><path class="st2" d="M765 111h62v4h-62z"/><path class="st5" d="M765 119h62v4h-62z"/><path class="st19" d="M839 125v-2l-43.7 24.3 1.2.7z"/><g class="st0"><linearGradient id="SVGID_10_" gradientUnits="userSpaceOnUse" x1="627.995" y1="1" x2="627.995" y2="176" gradientTransform="matrix(1 0 0 -1 0 796)"><stop offset="0" stop-color="gray" stop-opacity=".25"/><stop offset=".54" stop-color="gray" stop-opacity=".12"/><stop offset="1" stop-color="gray" stop-opacity=".1"/></linearGradient><path class="st21" d="M541 620h174v175H541z"/></g><path class="st20" d="M545 624h166v167H545z"/><path class="st2" d="M556 629h146v128H556z"/><path class="st10" d="M702 716c-40.3 0-73-10.3-73-23-40.3 0-73 9-73 20v48h146v-45z"/><circle class="st5" cx="678" cy="657" r="15"/><g class="st0"><linearGradient id="SVGID_11_" gradientUnits="userSpaceOnUse" x1="102" y1="331.75" x2="102" y2="476.25" gradientTransform="matrix(1 0 0 -1 0 796)"><stop offset="0" stop-color="gray" stop-opacity=".25"/><stop offset=".54" stop-color="gray" stop-opacity=".12"/><stop offset="1" stop-color="gray" stop-opacity=".1"/></linearGradient><path class="st22" d="M0 319.8h204v144.5H0z"/></g><path class="st2" d="M6 324h192v136H6z"/><path class="st10" d="M106 358.3c-1.6 0-3.2.1-4.8.3l4.8 36.7-37-2.4c-.1.8-.1 1.6-.1 2.5 0 20.4 16.6 37 37 37s37-16.6 37-37-16.5-37.1-36.9-37.1z"/><path class="st5" d="M93.1 351.7C75.7 354 62.2 368.3 61 385.9l36.9 2.5-4.8-36.7z"/></svg>