<svg width="622" height="542" viewBox="0 0 622 542" fill="none" xmlns="http://www.w3.org/2000/svg">
<path opacity="0.1" d="M0.27609 278.206C2.15848 299.091 13.9543 318.001 21.1679 337.895C31.3724 366.144 32.3348 396.914 23.9159 425.748C22.1984 431.673 20.0824 437.618 20.0755 443.687C20.0755 464.613 43.8802 478.5 65.5071 487.728C120.474 511.101 177.803 528.451 236.495 539.475C255.69 543.101 279.66 544.677 291.806 531.018C297.632 524.46 299.047 515.879 303.327 508.543C314.243 489.785 340.803 482.498 364.642 478.321C393.387 473.289 422.4 469.943 451.534 468.302C480.862 466.65 514.168 465.219 533.604 445.924C545.97 433.661 549.556 416.74 550.044 400.762C551.658 348.334 526.644 291.597 558.748 246.188C572.213 227.14 594.184 213.233 607.525 194.138C626.864 166.461 625.195 131.312 612.101 101.819C599.006 72.3254 575.806 47.25 552.95 22.6839C545.393 14.5571 537.327 6.10687 525.964 2.33592C514.148 -1.5864 500.751 0.216489 488.083 2.06755C430.457 10.4971 370.605 19.6767 322.302 48.6194C298.298 62.9944 278.251 81.6496 256.837 98.7771C210.582 135.819 156.988 170.04 95.907 184.662C46.2847 196.553 -4.18943 228.606 0.27609 278.206Z" fill="#A32655"/>
<path d="M17.7094 0.301548C17.7094 0.301548 -22.1368 -6.74487 17.7094 47.2869V0.301548Z" transform="translate(171.156 129.242)" fill="#FDB797"/>
<path d="M256.616 267.044C256.616 267.044 250.846 260.479 234.914 264.436C227.116 256.99 217.402 246.201 217.052 238.376C213.809 239.443 210.642 240.647 207.53 241.969C194.037 226.871 176.745 202.91 177.48 179.844C178.696 142.204 152.893 77.1206 152.893 77.1206C152.893 77.1206 155.022 50.5795 151.031 28.6419C148.324 13.7784 142.787 1.03426 131.912 0.0640039C130.232 -0.111136 128.534 0.0741784 126.931 0.60762C106.836 7.4889 119.319 71.7394 119.319 71.7394L101.931 125.496L1.00635e-05 179.858C1.00635e-05 179.858 61.7547 261.092 91.7355 264.078C91.7355 264.078 113.823 287.282 129.734 307.65C124.114 315.22 121.112 320.229 121.112 320.229L136.514 342.194C130.187 350.707 121.284 367.359 140.898 375.176C167.876 385.925 227.233 336.951 227.233 336.951C227.233 336.951 278.8 302.888 256.616 267.044Z" transform="translate(205.814 136.085)" fill="url(#paint0_linear)"/>
<path d="M18.1216 0.307095C18.1216 0.307095 -22.652 -6.8632 18.1216 48.0907V0.307095Z" transform="translate(170 129)" fill="url(#paint1_linear)"/>
<path d="M14.5836 7.56e-06C14.5836 7.56e-06 -0.324378 -7.875e-06 0.00538358 18.4556C0.0366125 21.5502 1.03192 24.5578 2.85229 27.0585C4.67267 29.5591 7.22723 31.4279 10.1593 32.4039C13.3308 33.4512 16.7866 33.2039 19.7773 31.7158C22.1324 30.5711 24.1871 28.8899 25.7768 26.8067C27.3665 24.7236 28.4471 22.2965 28.9319 19.7199C29.4168 17.1433 29.2924 14.4887 28.5688 11.9689C27.8452 9.44906 26.5425 7.13397 24.765 5.20912C22.0691 2.3532 18.4739 0.513808 14.5836 7.56e-06Z" transform="translate(163.647 180.334)" fill="url(#paint2_linear)"/>
<path d="M16.4773 1.02532C15.1651 0.373021 13.7239 0.022699 12.2591 -5.04e-06C12.2591 -5.04e-06 -2.13361 3.58514 0.270905 20.9053C0.270905 20.9053 1.47317 33.4499 14.0591 31.6539C22.6878 30.4221 23.7115 19.0887 23.5054 12.0835C23.4581 9.77218 22.7776 7.5183 21.5382 5.5681C20.2987 3.61791 18.548 2.04643 16.4773 1.02532Z" transform="translate(168.967 216.77)" fill="url(#paint3_linear)"/>
<path d="M17.8287 1.02532C16.7225 0.401043 15.4838 0.0495654 14.2151 -7.56e-06C12.6578 0.986849 11.1745 2.08618 9.77703 3.28924C7.43475 5.25333 5.35643 7.51316 3.594 10.0123C-1.83333 17.8844 -3.59893 29.4519 16.6471 41.2189V25.6809C19.1608 23.3399 21.277 20.6043 22.9125 17.5817C24.4209 14.7091 24.7329 11.3553 23.7803 8.25308C22.8277 5.15084 20.688 2.55235 17.8287 1.02532Z" transform="translate(168.22 262.765)" fill="url(#paint4_linear)"/>
<path d="M1.67725e-05 80.4559C1.67725e-05 80.4559 36.9402 18.7928 93.8103 1.344e-05L90.8768 33.4774L43.7484 80.4628L1.67725e-05 80.4559Z" transform="translate(325.188 370.629)" fill="#DFE5EE"/>
<path opacity="0.05" d="M1.67725e-05 80.4559C1.67725e-05 80.4559 36.9402 18.7928 93.8103 1.344e-05L90.8768 33.4774L43.7484 80.4628L1.67725e-05 80.4559Z" transform="translate(325.188 370.629)" fill="black"/>
<path d="M11.7279 72.5308C11.7279 72.5308 -14.6599 99.5467 11.7279 110.116C38.1157 120.686 96.1606 72.5308 96.1606 72.5308C96.1606 72.5308 146.587 39.0533 124.891 3.81428C124.891 3.81428 100.269 -24.3783 11.7279 72.5308Z" transform="translate(332.806 395)" fill="#A32655"/>
<path d="M218.124 253.19C218.124 253.19 141.31 342.461 142.484 329.524C142.828 325.767 138.5 318.28 132.179 309.569C116.825 288.299 89.7089 259.659 89.7089 259.659C60.3945 256.72 -6.70902e-06 176.849 -6.70902e-06 176.849L99.6773 123.402L116.681 70.5473C116.681 70.5473 104.479 7.36344 124.128 0.59914C125.694 0.0739147 127.355 -0.109103 128.999 0.0624014C129.72 0.125027 130.434 0.247008 131.135 0.427108C140.334 2.7461 145.184 14.4236 147.623 27.9522C147.623 28.0279 147.658 28.1105 147.671 28.1862C151.574 49.759 149.492 75.8528 149.492 75.8528C149.492 75.8528 174.705 139.849 173.537 176.87C172.754 201.643 192.986 227.461 206.451 241.822C213.129 248.896 218.124 253.19 218.124 253.19Z" transform="translate(206.741 136.224)" fill="#FDB797"/>
<path opacity="0.05" d="M99.1071 72.0699C99.1071 72.0699 100.282 16.2765 90.3135 2.18367C80.3451 -11.9092 0 46.8225 0 46.8225C0 46.8225 83.2785 56.8004 99.1071 72.0699Z" transform="translate(219.629 269.775)" fill="black"/>
<path opacity="0.05" d="M-1.67725e-06 55.9448C-1.67725e-06 55.9448 36.2051 34.5027 35.7242 8.4e-06L-1.67725e-06 55.9448Z" transform="translate(344.533 305.897)" fill="black"/>
<path opacity="0.05" d="M28.7305 1.176e-05C28.7305 1.176e-05 18.7621 14.0929 1.17408e-05 13.508L28.7305 1.176e-05Z" transform="translate(296.457 382.368)" fill="black"/>
<path opacity="0.05" d="M85.9441 11.3816C85.9441 11.3816 9.13028 100.652 10.3051 87.7157C10.6486 83.9585 6.32044 76.4717 1.00635e-05 67.76C42.5461 53.1441 65.6432 16.6802 74.2857 2.016e-05C80.9496 7.08774 85.9441 11.3816 85.9441 11.3816Z" transform="translate(338.921 378.033)" fill="black"/>
<path d="M120.535 35.067C120.534 35.2381 120.515 35.4088 120.48 35.5762C119.298 41.5217 118.419 47.5152 117.45 53.5088C117.149 55.4133 116.689 57.2893 116.076 59.1171C114.39 63.9852 111.872 68.5231 108.636 72.5287C85.2778 102.173 25.797 117.457 25.797 117.457L25.5771 117.133L1.67725e-05 80.4559C67.4294 67.5397 93.8103 6.72e-06 93.8103 6.72e-06C94.3187 11.2784 114.482 28.8119 119.607 33.0921C119.895 33.3347 120.126 33.637 120.285 33.978C120.444 34.319 120.527 34.6906 120.528 35.067H120.535Z" transform="translate(325.188 370.622)" fill="#DFE5EE"/>
<path opacity="0.5" d="M17.4531 27.4976C0.429199 25.3162 -0.951661 10.7279 0.381125 0.172028C0.559746 0.110097 0.752105 0.0481652 0.937596 -3.78e-06C10.1366 2.31899 14.9868 13.9965 17.4531 27.4976Z" transform="translate(336.939 136.659)" fill="#EFF4F8"/>
<path opacity="0.05" d="M94.9576 1.34871C94.9566 1.51988 94.9382 1.69053 94.9027 1.85796C93.721 7.80339 92.8416 13.797 91.8729 19.7906C91.5718 21.6951 91.1122 23.571 90.4989 25.3988L89.0494 29.4175L85.5319 35.2597L83.0587 38.7829C59.7006 68.4274 0.219849 83.7107 0.219849 83.7107L3.35451e-06 83.3873C1.86178 82.6166 41.9484 66.0259 57.9762 51.1141C73.1865 36.9731 91.9142 4.68616 94.5935 6.72e-06C94.8357 0.407771 94.9616 0.874241 94.9576 1.34871Z" transform="translate(350.765 404.34)" fill="black"/>
<path d="M131.444 1.78539e-05H11.8508C10.2972 -0.0026955 8.75835 0.301118 7.32201 0.894109C5.88567 1.4871 4.58 2.35765 3.47955 3.45607C2.3791 4.55449 1.50542 5.85926 0.908398 7.29587C0.311376 8.73249 0.00270168 10.2728 -2.51588e-06 11.8289V274.143C0.00270168 275.699 0.311376 277.24 0.908398 278.676C1.50542 280.113 2.3791 281.418 3.47955 282.516C4.58 283.615 5.88567 284.485 7.32201 285.078C8.75835 285.671 10.2972 285.975 11.8508 285.972H131.444C132.998 285.975 134.537 285.671 135.973 285.078C137.409 284.485 138.715 283.615 139.816 282.516C140.916 281.418 141.79 280.113 142.387 278.676C142.984 277.24 143.292 275.699 143.295 274.143V11.8221C143.288 8.68055 142.035 5.67051 139.813 3.45364C137.591 1.23677 134.581 -0.00546364 131.444 1.78539e-05Z" transform="translate(184.826 36.7493)" fill="url(#paint5_linear)"/>
<path d="M133.547 0H7.55704C3.3834 0 3.35451e-06 3.38894 3.35451e-06 7.56941V275.107C3.35451e-06 279.287 3.3834 282.676 7.55704 282.676H133.547C137.72 282.676 141.104 279.287 141.104 275.107V7.56941C141.104 3.38894 137.72 0 133.547 0Z" transform="translate(185.918 38.9375)" fill="#535461"/>
<path d="M120.322 2.1e-06H6.70902e-06V230.082H120.322V2.1e-06Z" transform="translate(196.312 65.2377)" fill="#F1F1F4"/>
<path d="M1.09234 2.18825C1.69562 2.18825 2.18467 1.69839 2.18467 1.09413C2.18467 0.489857 1.69562 0 1.09234 0C0.489059 0 5.87039e-06 0.489857 5.87039e-06 1.09413C5.87039e-06 1.69839 0.489059 2.18825 1.09234 2.18825Z" transform="translate(241.16 50.9936)" fill="white"/>
<path d="M23.3787 0H0.687001C0.307579 0 -2.51588e-06 0.308084 -2.51588e-06 0.688127V1.50012C-2.51588e-06 1.88016 0.307579 2.18825 0.687001 2.18825H23.3787C23.7581 2.18825 24.0657 1.88016 24.0657 1.50012V0.688127C24.0657 0.308084 23.7581 0 23.3787 0Z" transform="translate(247.721 50.9936)" fill="white"/>
<path d="M7.66009 15.3453C11.8906 15.3453 15.3202 11.9101 15.3202 7.67262C15.3202 3.43514 11.8906 -5.04e-06 7.66009 -5.04e-06C3.42954 -5.04e-06 3.35451e-06 3.43514 3.35451e-06 7.67262C3.35451e-06 11.9101 3.42954 15.3453 7.66009 15.3453Z" transform="translate(248.264 298.602)" fill="white"/>
<path d="M14.2608 1.008e-05C14.2608 1.008e-05 -0.324253 6.5625e-06 0.0055087 18.1459C0.0314121 21.1819 1.00149 24.1344 2.78074 26.5924C4.55999 29.0504 7.05993 30.8918 9.93272 31.8603C13.0313 32.8805 16.4067 32.6331 19.324 31.1722C22.4892 29.6074 25.0695 27.0665 26.6854 23.9233C28.3013 20.78 28.8675 17.2003 28.3007 13.7107C27.7339 10.2211 26.064 7.00581 23.5367 4.53773C21.0093 2.06965 17.758 0.479096 14.2608 1.008e-05Z" transform="translate(165.522 179.756)" fill="#FDB797"/>
<path opacity="0.5" d="M6.55089 0C6.55089 0 -6.93499 9.39983 4.79216 17.6161C4.78529 17.6505 3.61051 1.20422 6.55089 0Z" transform="translate(173.232 189.121)" fill="#EFF4F8"/>
<path d="M11.9903 8.4e-06C11.9903 8.4e-06 -2.07953 3.52322 0.263149 20.5544C0.263149 20.5544 1.43793 32.8856 13.749 31.124C22.1923 29.9129 23.1884 18.7377 22.9892 11.8564C22.9482 9.58774 22.2858 7.37391 21.0743 5.45658C19.8628 3.53926 18.1487 1.99213 16.1192 0.984026C14.8338 0.350615 13.4228 0.0143439 11.9903 8.4e-06Z" transform="translate(170.719 215.58)" fill="#FDB797"/>
<path opacity="0.5" d="M5.99372 5.88e-06C5.99372 5.88e-06 -7.49216 5.28483 5.99372 19.9557C5.99372 19.9695 -0.464113 5.87662 5.99372 5.88e-06Z" transform="translate(176.125 223.211)" fill="#EFF4F8"/>
<path d="M16.2678 25.2474V40.517C-3.51794 28.9564 -1.79356 17.5748 3.51697 9.84024C5.24545 7.38482 7.28452 5.16429 9.5832 3.23421C10.9499 2.0516 12.401 0.970644 13.9251 -5.04e-06C15.1681 0.0493895 16.3813 0.396246 17.4631 1.01154C20.2571 2.53084 22.3413 5.09122 23.2645 8.13838C24.1877 11.1855 23.8756 14.4743 22.3958 17.2927C20.7967 20.2592 18.7271 22.9458 16.2678 25.2474Z" transform="translate(169.96 260.81)" fill="#FDB797"/>
<path opacity="0.5" d="M2.78236 14.3819C2.78236 14.3819 1.25722 10.7073 5.03176e-06 6.60603C1.72848 4.15062 3.76756 1.93008 6.06624 -3.36e-06C9.93406 6.37206 2.78236 14.3819 2.78236 14.3819Z" transform="translate(173.477 264.038)" fill="#EFF4F8"/>
<path opacity="0.05" d="M19.9231 6.72e-06C19.9231 6.72e-06 4.67851 17.0312 1.67725e-05 18.7928L19.9231 6.72e-06Z" transform="translate(334.29 212.353)" fill="black"/>
<rect x="1" y="1" width="22" height="22" transform="translate(211 141)" stroke="#DBDBDE" stroke-width="2"/>
<path d="M0 0H58C59.6569 0 61 1.34315 61 3V7C61 8.65685 59.6569 10 58 10H0V0Z" transform="translate(233 148)" fill="black" fill-opacity="0.09"/>
<path d="M27.8313 0.754358L30.2539 3.45072L30.2502 3.45532C30.4054 3.62715 30.5 3.8699 30.5 4.13223C30.5 4.39416 30.4057 4.63657 30.251 4.80835C30.2507 4.80862 30.2505 4.80888 30.2502 4.80915L11.6408 25.2446L11.6398 25.2457C11.486 25.4155 11.2889 25.5 11.0954 25.5C10.9022 25.5 10.7054 25.4158 10.5517 25.2464C10.5515 25.2462 10.5512 25.2459 10.551 25.2457L0.750802 14.3213L0.749734 14.3201C0.59459 14.1483 0.5 13.9055 0.5 13.6432C0.5 13.3811 0.594444 13.1385 0.749373 12.9667C0.749493 12.9666 0.749614 12.9664 0.749734 12.9663L3.1839 10.2828L3.18418 10.2825C3.33801 10.1126 3.53509 10.0281 3.72859 10.0281C3.92179 10.0281 4.11856 10.1124 4.27228 10.2817C4.27252 10.282 4.27275 10.2822 4.27299 10.2825L10.7386 17.4932L11.1078 17.905L11.4804 17.4963L26.7414 0.755593L26.7425 0.754358C26.8963 0.584486 27.0934 0.5 27.2869 0.5C27.4801 0.5 27.677 0.584249 27.8307 0.753667C27.8309 0.753897 27.8311 0.754128 27.8313 0.754358Z" transform="translate(213 135)" fill="#DBDBDE" stroke="#F1F1F4"/>
<rect x="1" y="1" width="22" height="22" transform="translate(211 140)" stroke="#4CAF50" stroke-width="2"/>
<path d="M0 0H58C59.6569 0 61 1.34315 61 3V7C61 8.65685 59.6569 10 58 10H0V0Z" transform="translate(233 147)" fill="#4CAF50"/>
<path d="M27.8313 0.754352L30.2539 3.45071L30.2503 3.45531C30.4054 3.62715 30.5 3.86989 30.5 4.13223C30.5 4.39416 30.4057 4.63656 30.251 4.80835C30.2507 4.80861 30.2505 4.80888 30.2503 4.80914L11.6408 25.2446L11.6398 25.2456C11.486 25.4155 11.2889 25.5 11.0954 25.5C10.9022 25.5 10.7053 25.4157 10.5516 25.2463C10.5514 25.2461 10.5512 25.2459 10.551 25.2456L0.750812 14.3213L0.749744 14.3201C0.5946 14.1483 0.50001 13.9055 0.50001 13.6432C0.50001 13.381 0.594511 13.1384 0.749525 12.9665C0.749598 12.9665 0.749671 12.9664 0.749744 12.9663L3.18391 10.2828L3.18419 10.2825C3.33802 10.1126 3.5351 10.0281 3.7286 10.0281C3.9218 10.0281 4.11857 10.1124 4.27229 10.2817C4.27253 10.282 4.27276 10.2822 4.273 10.2825L10.7387 17.4932L11.1079 17.905L11.4804 17.4963L26.7414 0.755586L26.7425 0.754352C26.8963 0.58448 27.0934 0.499994 27.2869 0.499994C27.4802 0.499994 27.677 0.584244 27.8307 0.753667C27.8309 0.753895 27.8311 0.754123 27.8313 0.754352Z" transform="translate(213 134)" fill="#4CAF50" stroke="#F1F1F4"/>
<rect x="1" y="1" width="22" height="22" transform="translate(211 177)" stroke="#DBDBDE" stroke-width="2"/>
<path d="M0 0H58C59.6569 0 61 1.34315 61 3V7C61 8.65685 59.6569 10 58 10H0V0Z" transform="translate(233 184)" fill="black" fill-opacity="0.09"/>
<path d="M27.8313 0.754358L30.2539 3.45072L30.2502 3.45532C30.4054 3.62715 30.5 3.8699 30.5 4.13223C30.5 4.39416 30.4057 4.63657 30.251 4.80835C30.2507 4.80862 30.2505 4.80888 30.2502 4.80915L11.6408 25.2446L11.6398 25.2457C11.486 25.4155 11.2889 25.5 11.0954 25.5C10.9022 25.5 10.7054 25.4158 10.5517 25.2464C10.5515 25.2462 10.5512 25.2459 10.551 25.2457L0.750802 14.3213L0.749734 14.3201C0.59459 14.1483 0.5 13.9055 0.5 13.6432C0.5 13.3811 0.594444 13.1385 0.749373 12.9667C0.749493 12.9666 0.749614 12.9664 0.749734 12.9663L3.1839 10.2828L3.18418 10.2825C3.33801 10.1126 3.53509 10.0281 3.72859 10.0281C3.92179 10.0281 4.11856 10.1124 4.27228 10.2817C4.27252 10.282 4.27275 10.2822 4.27299 10.2825L10.7386 17.4932L11.1078 17.905L11.4804 17.4963L26.7414 0.755593L26.7425 0.754358C26.8963 0.584486 27.0934 0.5 27.2869 0.5C27.4801 0.5 27.677 0.584249 27.8307 0.753667C27.8309 0.753897 27.8311 0.754128 27.8313 0.754358Z" transform="translate(213 171)" fill="#DBDBDE" stroke="#F1F1F4"/>
<rect x="1" y="1" width="22" height="22" transform="translate(211 176)" stroke="#4CAF50" stroke-width="2"/>
<path d="M0 0H58C59.6569 0 61 1.34315 61 3V7C61 8.65685 59.6569 10 58 10H0V0Z" transform="translate(233 183)" fill="#4CAF50"/>
<path d="M27.8313 0.754352L30.2539 3.45071L30.2503 3.45531C30.4054 3.62715 30.5 3.86989 30.5 4.13223C30.5 4.39416 30.4057 4.63656 30.251 4.80835C30.2507 4.80861 30.2505 4.80888 30.2503 4.80914L11.6408 25.2446L11.6398 25.2456C11.486 25.4155 11.2889 25.5 11.0954 25.5C10.9022 25.5 10.7053 25.4157 10.5516 25.2463C10.5514 25.2461 10.5512 25.2459 10.551 25.2456L0.750812 14.3213L0.749744 14.3201C0.5946 14.1483 0.50001 13.9055 0.50001 13.6432C0.50001 13.381 0.594511 13.1384 0.749525 12.9665C0.749598 12.9665 0.749671 12.9664 0.749744 12.9663L3.18391 10.2828L3.18419 10.2825C3.33802 10.1126 3.5351 10.0281 3.7286 10.0281C3.9218 10.0281 4.11857 10.1124 4.27229 10.2817C4.27253 10.282 4.27276 10.2822 4.273 10.2825L10.7387 17.4932L11.1079 17.905L11.4804 17.4963L26.7414 0.755586L26.7425 0.754352C26.8963 0.58448 27.0934 0.499994 27.2869 0.499994C27.4802 0.499994 27.677 0.584244 27.8307 0.753667C27.8309 0.753895 27.8311 0.754123 27.8313 0.754352Z" transform="translate(213 170)" fill="#4CAF50" stroke="#F1F1F4"/>
<rect x="1" y="1" width="22" height="22" transform="translate(211 212)" stroke="#DBDBDE" stroke-width="2"/>
<path d="M0 0H58C59.6569 0 61 1.34315 61 3V7C61 8.65685 59.6569 10 58 10H0V0Z" transform="translate(233 219)" fill="black" fill-opacity="0.09"/>
<rect x="1" y="1" width="22" height="22" transform="translate(211 211)" stroke="#F55F44" stroke-width="2"/>
<path d="M0 0H58C59.6569 0 61 1.34315 61 3V7C61 8.65685 59.6569 10 58 10H0V0Z" transform="translate(233 218)" fill="#F55F44"/>
<defs>
<linearGradient id="paint0_linear" x2="1" gradientUnits="userSpaceOnUse" gradientTransform="translate(-56.9698 376.704) scale(376.1 376.716) rotate(-90)">
<stop stop-color="#808080" stop-opacity="0.25"/>
<stop offset="0.54" stop-color="#808080" stop-opacity="0.12"/>
<stop offset="1" stop-color="#808080" stop-opacity="0.1"/>
</linearGradient>
<linearGradient id="paint1_linear" x2="1" gradientUnits="userSpaceOnUse" gradientTransform="translate(6743.69 15074) scale(1266.52 3361.06) rotate(-90)">
<stop stop-color="#808080" stop-opacity="0.25"/>
<stop offset="0.54" stop-color="#808080" stop-opacity="0.12"/>
<stop offset="1" stop-color="#808080" stop-opacity="0.1"/>
</linearGradient>
<linearGradient id="paint2_linear" x2="1" gradientUnits="userSpaceOnUse" gradientTransform="translate(11185.6 12102) scale(1403.24 1586.72) rotate(-90)">
<stop stop-color="#808080" stop-opacity="0.25"/>
<stop offset="0.54" stop-color="#808080" stop-opacity="0.12"/>
<stop offset="1" stop-color="#808080" stop-opacity="0.1"/>
</linearGradient>
<linearGradient id="paint3_linear" x2="1" gradientUnits="userSpaceOnUse" gradientTransform="translate(9111.6 13287.1) scale(1088.42 1472.45) rotate(-90)">
<stop stop-color="#808080" stop-opacity="0.25"/>
<stop offset="0.54" stop-color="#808080" stop-opacity="0.12"/>
<stop offset="1" stop-color="#808080" stop-opacity="0.1"/>
</linearGradient>
<linearGradient id="paint4_linear" x2="1" gradientUnits="userSpaceOnUse" gradientTransform="translate(9239.38 20523.3) scale(1456.65 2468.6) rotate(-90)">
<stop stop-color="#808080" stop-opacity="0.25"/>
<stop offset="0.54" stop-color="#808080" stop-opacity="0.12"/>
<stop offset="1" stop-color="#808080" stop-opacity="0.1"/>
</linearGradient>
<linearGradient id="paint5_linear" x2="1" gradientUnits="userSpaceOnUse" gradientTransform="translate(44829.2 150175) scale(59549.2 118841) rotate(-90)">
<stop stop-color="#808080" stop-opacity="0.25"/>
<stop offset="0.54" stop-color="#808080" stop-opacity="0.12"/>
<stop offset="1" stop-color="#808080" stop-opacity="0.1"/>
</linearGradient>
</defs>
</svg>
