<?xml version="1.0" encoding="utf-8"?>
<!-- Generator: Adobe Illustrator 21.1.0, SVG Export Plug-In . SVG Version: 6.00 Build 0)  -->
<svg version="1.1" id="_x36_29dcec7-c063-4496-b40c-d8a33d01e794"
	 xmlns="http://www.w3.org/2000/svg" xmlns:xlink="http://www.w3.org/1999/xlink" x="0px" y="0px" viewBox="0 0 873.6 795"
	 style="enable-background:new 0 0 873.6 795;" xml:space="preserve">
<style type="text/css">
	.st0{opacity:0.5;}
	.st1{fill:url(#SVGID_1_);}
	.st2{fill:#FFFFFF;}
	.st3{fill:url(#SVGID_2_);}
	.st4{fill:url(#SVGID_3_);}
	.st5{fill:#9A1144;}
	.st6{fill:url(#SVGID_4_);}
	.st7{fill:url(#SVGID_5_);}
	.st8{fill:url(#SVGID_6_);}
	.st9{fill:#4CAF50;}
	.st10{fill:#E0E0E0;}
	.st11{fill:url(#SVGID_7_);}
	.st12{fill:none;stroke:#FFC021;stroke-width:5;stroke-miterlimit:10;}
	.st13{fill:none;stroke:#FFC021;stroke-width:5;stroke-miterlimit:10;stroke-dasharray:11.54,11.54;}
	.st14{fill:none;stroke:#FFC021;stroke-width:5;stroke-miterlimit:10;stroke-dasharray:11.45,11.45;}
	.st15{opacity:0.5;fill:none;stroke:#FFC021;stroke-width:5;stroke-miterlimit:10;stroke-dasharray:12;enable-background:new    ;}
	.st16{fill:url(#SVGID_8_);}
	.st17{fill:url(#SVGID_9_);}
	.st18{fill:#FAFAFA;}
	.st19{opacity:5.000000e-02;enable-background:new    ;}
	.st20{fill:#F5F5F5;}
	.st21{fill:url(#SVGID_10_);}
	.st22{fill:url(#SVGID_11_);}
</style>
<title>customer survey</title>
<g class="st0">
	
		<linearGradient id="SVGID_1_" gradientUnits="userSpaceOnUse" x1="441" y1="198" x2="441" y2="741" gradientTransform="matrix(1 0 0 -1 0 796)">
		<stop  offset="0" style="stop-color:#808080;stop-opacity:0.25"/>
		<stop  offset="0.54" style="stop-color:#808080;stop-opacity:0.12"/>
		<stop  offset="1" style="stop-color:#808080;stop-opacity:0.1"/>
	</linearGradient>
	<rect x="244.5" y="55" class="st1" width="393" height="543"/>
</g>
<rect x="249.5" y="59" class="st2" width="383" height="531"/>
<linearGradient id="SVGID_2_" gradientUnits="userSpaceOnUse" x1="441.5" y1="705" x2="441.5" y2="751.02" gradientTransform="matrix(1 0 0 -1 0 796)">
	<stop  offset="0" style="stop-color:#808080;stop-opacity:0.25"/>
	<stop  offset="0.54" style="stop-color:#808080;stop-opacity:0.12"/>
	<stop  offset="1" style="stop-color:#808080;stop-opacity:0.1"/>
</linearGradient>
<rect x="346.5" y="45" class="st3" width="190" height="46"/>
<linearGradient id="SVGID_3_" gradientUnits="userSpaceOnUse" x1="604.72" y1="689.1" x2="604.72" y2="743.5" gradientTransform="matrix(1 0 0 -1 -163.22 743.5)">
	<stop  offset="0" style="stop-color:#808080;stop-opacity:0.25"/>
	<stop  offset="0.54" style="stop-color:#808080;stop-opacity:0.12"/>
	<stop  offset="1" style="stop-color:#808080;stop-opacity:0.1"/>
</linearGradient>
<path class="st4" d="M441.5,0c-14.7,0-26.6,12.2-26.6,27.2s11.9,27.2,26.6,27.2s26.6-12.2,26.6-27.2S456.2,0,441.5,0z M441.5,42.9
	c-8.7,0.2-15.9-6.6-16.1-15.3s6.6-15.9,15.3-16.1c8.7-0.2,15.9,6.6,16.1,15.3c0,0.1,0,0.3,0,0.4C456.9,35.7,450,42.8,441.5,42.9z"/>
<rect x="348.5" y="45" class="st5" width="186" height="44"/>
<path class="st5" d="M441.5,2c-14.4,0-26,11.6-26,26s11.6,26,26,26s26-11.6,26-26S455.9,2,441.5,2z M441.5,43c-8.3,0-15-6.7-15-15
	s6.7-15,15-15s15,6.7,15,15S449.8,43,441.5,43L441.5,43z"/>
<linearGradient id="SVGID_4_" gradientUnits="userSpaceOnUse" x1="308.5" y1="569" x2="308.5" y2="651" gradientTransform="matrix(1 0 0 -1 0 796)">
	<stop  offset="0" style="stop-color:#808080;stop-opacity:0.25"/>
	<stop  offset="0.54" style="stop-color:#808080;stop-opacity:0.12"/>
	<stop  offset="1" style="stop-color:#808080;stop-opacity:0.1"/>
</linearGradient>
<rect x="267.5" y="145" class="st6" width="82" height="82"/>
<linearGradient id="SVGID_5_" gradientUnits="userSpaceOnUse" x1="308.78" y1="406.5" x2="308.78" y2="488.5" gradientTransform="matrix(1 0 0 -1 0 796)">
	<stop  offset="0" style="stop-color:#808080;stop-opacity:0.25"/>
	<stop  offset="0.54" style="stop-color:#808080;stop-opacity:0.12"/>
	<stop  offset="1" style="stop-color:#808080;stop-opacity:0.1"/>
</linearGradient>
<rect x="267.8" y="307.5" class="st7" width="82" height="82"/>
<linearGradient id="SVGID_6_" gradientUnits="userSpaceOnUse" x1="309.06" y1="246" x2="309.06" y2="328" gradientTransform="matrix(1 0 0 -1 0 796)">
	<stop  offset="0" style="stop-color:#808080;stop-opacity:0.25"/>
	<stop  offset="0.54" style="stop-color:#808080;stop-opacity:0.12"/>
	<stop  offset="1" style="stop-color:#808080;stop-opacity:0.1"/>
</linearGradient>
<rect x="268.1" y="468" class="st8" width="82" height="82"/>
<rect x="270.5" y="148" class="st9" width="76" height="76"/>
<rect x="270.5" y="309" class="st5" width="76" height="76"/>
<rect x="270.5" y="470" class="st5" width="76" height="76"/>
<rect x="396.5" y="171.5" class="st10" width="104.2" height="7.3"/>
<rect x="396.5" y="182.4" class="st10" width="172" height="7.3"/>
<rect x="396.5" y="193.3" class="st10" width="159.9" height="7.3"/>
<rect x="396.5" y="332.5" class="st10" width="104.2" height="7.3"/>
<rect x="396.5" y="343.4" class="st10" width="172" height="7.3"/>
<rect x="396.5" y="354.3" class="st10" width="159.9" height="7.3"/>
<rect x="396.5" y="493.5" class="st10" width="104.2" height="7.3"/>
<rect x="396.5" y="504.4" class="st10" width="172" height="7.3"/>
<rect x="396.5" y="515.3" class="st10" width="159.9" height="7.3"/>
<linearGradient id="SVGID_7_" gradientUnits="userSpaceOnUse" x1="308.5" y1="590.37" x2="308.5" y2="630.62" gradientTransform="matrix(1 0 0 -1 0 796)">
	<stop  offset="0" style="stop-color:#808080;stop-opacity:0.25"/>
	<stop  offset="0.54" style="stop-color:#808080;stop-opacity:0.12"/>
	<stop  offset="1" style="stop-color:#808080;stop-opacity:0.1"/>
</linearGradient>
<polygon class="st11" points="291.3,181.5 305,194.1 324.6,165.4 331.5,171.1 305,205.6 285.5,183.8 "/>
<polygon class="st2" points="293.5,182 305.5,193 322.5,168 328.5,173 305.5,203 288.5,184 "/>
<polygon class="st2" points="293.5,344 305.5,355 322.5,330 328.5,335 305.5,365 288.5,346 "/>
<polygon class="st2" points="293.5,506 305.5,517 322.5,492 328.5,497 305.5,527 288.5,508 "/>
<g class="st0">
	<line class="st12" x1="651" y1="351" x2="657" y2="351"/>
	<line class="st13" x1="668.5" y1="351" x2="801.2" y2="351"/>
	<polyline class="st12" points="807,351 813,351 813,345 	"/>
	<line class="st14" x1="813" y1="333.5" x2="813" y2="224.7"/>
	<line class="st12" x1="813" y1="219" x2="813" y2="213"/>
</g>
<polyline class="st15" points="231.5,182.5 97.5,182.5 97.5,308.5 "/>
<polyline class="st15" points="308.5,611.5 308.5,683.5 508.5,683.5 "/>
<g class="st0">
	
		<linearGradient id="SVGID_8_" gradientUnits="userSpaceOnUse" x1="796.5" y1="603" x2="796.5" y2="754" gradientTransform="matrix(1 0 0 -1 0 796)">
		<stop  offset="0" style="stop-color:#808080;stop-opacity:0.25"/>
		<stop  offset="0.54" style="stop-color:#808080;stop-opacity:0.12"/>
		<stop  offset="1" style="stop-color:#808080;stop-opacity:0.1"/>
	</linearGradient>
	<polygon class="st16" points="873.6,107.1 796.5,42 720.6,106.9 720,106.6 720,107.1 719.4,107.1 720,107.4 720,107.6 720,192 
		720,193 873,193 872.1,192.5 873.6,192.5 	"/>
</g>
<polygon class="st2" points="870.5,189.5 723.5,189.5 723.5,107.5 796.5,45 870.5,107.5 "/>
<polyline class="st10" points="722.5,107.5 795.5,148.5 869.5,107.5 "/>
<g class="st0">
	
		<linearGradient id="SVGID_9_" gradientUnits="userSpaceOnUse" x1="796.5" y1="620" x2="796.5" y2="727" gradientTransform="matrix(1 0 0 -1 0 796)">
		<stop  offset="0" style="stop-color:#808080;stop-opacity:0.25"/>
		<stop  offset="0.54" style="stop-color:#808080;stop-opacity:0.12"/>
		<stop  offset="1" style="stop-color:#808080;stop-opacity:0.1"/>
	</linearGradient>
	<polygon class="st17" points="797,147.5 752,176 752,69 841,69 841,123.4 	"/>
</g>
<polygon class="st18" points="797,148 754,176 754,71 839,71 839,124.4 "/>
<polygon class="st19" points="723,189 870,189 723,107 "/>
<polygon class="st20" points="723,190 870,190 723,108 "/>
<rect x="765" y="87" class="st2" width="62" height="4"/>
<rect x="765" y="95" class="st2" width="62" height="4"/>
<rect x="765" y="103" class="st5" width="62" height="4"/>
<rect x="765" y="111" class="st2" width="62" height="4"/>
<rect x="765" y="119" class="st5" width="62" height="4"/>
<polygon class="st19" points="839,125 839,123 795.3,147.3 796.5,148 "/>
<g class="st0">
	
		<linearGradient id="SVGID_10_" gradientUnits="userSpaceOnUse" x1="627.995" y1="1" x2="627.995" y2="176" gradientTransform="matrix(1 0 0 -1 0 796)">
		<stop  offset="0" style="stop-color:#808080;stop-opacity:0.25"/>
		<stop  offset="0.54" style="stop-color:#808080;stop-opacity:0.12"/>
		<stop  offset="1" style="stop-color:#808080;stop-opacity:0.1"/>
	</linearGradient>
	<rect x="541" y="620" class="st21" width="174" height="175"/>
</g>
<rect x="545" y="624" class="st20" width="166" height="167"/>
<rect x="556" y="629" class="st2" width="146" height="128"/>
<path class="st10" d="M702,716c-40.3,0-73-10.3-73-23c-40.3,0-73,9-73,20v48h146V716z"/>
<circle class="st5" cx="678" cy="657" r="15"/>
<g class="st0">
	
		<linearGradient id="SVGID_11_" gradientUnits="userSpaceOnUse" x1="102" y1="331.75" x2="102" y2="476.25" gradientTransform="matrix(1 0 0 -1 0 796)">
		<stop  offset="0" style="stop-color:#808080;stop-opacity:0.25"/>
		<stop  offset="0.54" style="stop-color:#808080;stop-opacity:0.12"/>
		<stop  offset="1" style="stop-color:#808080;stop-opacity:0.1"/>
	</linearGradient>
	<rect y="319.8" class="st22" width="204" height="144.5"/>
</g>
<rect x="6" y="324" class="st2" width="192" height="136"/>
<path class="st10" d="M106,358.3c-1.6,0-3.2,0.1-4.8,0.3l4.8,36.7L69,392.9c-0.1,0.8-0.1,1.6-0.1,2.5c0,20.4,16.6,37,37,37
	s37-16.6,37-37S126.4,358.3,106,358.3z"/>
<path class="st5" d="M93.1,351.7C75.7,354,62.2,368.3,61,385.9l36.9,2.5L93.1,351.7z"/>
</svg>
