<svg id="_x36_670c59b-7363-437f-8bc4-669e571fa4b5" xmlns="http://www.w3.org/2000/svg" viewBox="0 0 567 785.7"><style>.st0{fill:#f5f5f5}.st1{opacity:.1;enable-background:new}.st2{fill:#4caf50}.st3{fill:none;stroke:#fff;stroke-width:7;stroke-linecap:round;stroke-miterlimit:10}.st4{opacity:.4}.st5,.st6,.st7{opacity:.3;enable-background:new}.st6,.st7{opacity:.1;fill:#9a1144}.st7{fill:#fff}.st8{opacity:.5}.st9{fill:url(#SVGID_1_)}.st10{fill:#fda57d}.st11{fill:#9a1144}.st12{opacity:5e-2;enable-background:new}.st13{fill:#373737}.st14{fill:#333}.st15{fill:#47e6b1}.st16{fill:#4d8af0}.st16,.st17,.st18{opacity:.5;enable-background:new}.st17{fill:#f55f44}.st18{fill:#47e6b1}</style><title>choose</title><path class="st0" d="M528.8 115.5l-54.3-16.4-3.3 74.2 57.1 17.2z"/><path class="st0" d="M146.8 0v75.5l324.4 97.8 3.3-74.2z"/><path class="st1" d="M528.8 115.5l-54.3-16.4-3.3 74.2 57.1 17.2z"/><path class="st2" d="M528.8 257.6l-54.3-16.4-3.3 74.2 57.1 17.2z"/><path class="st2" d="M146.8 142.1v75.5l324.4 97.8 3.3-74.2z"/><path class="st1" d="M528.5 257.6l-54.3-16.4-3.3 74.2 57.1 17.2z"/><path class="st3" d="M488.3 283.8l8.9 13.3 17.7-22.2"/><g class="st4"><path class="st3" d="M488.8 128.3l17.7 31.1m4.5-26.7l-22.2 22.2"/></g><path class="st0" d="M528.8 390.8l-54.3-16.4-3.3 74.2 57.1 17.2z"/><path class="st0" d="M146.8 275.4v75.5l324.4 97.7 3.3-74.2z"/><path class="st1" d="M528.8 390.8l-54.3-16.4-3.3 74.2 57.1 17.2z"/><g class="st4"><path class="st3" d="M488.8 403.7l17.7 31.1m4.5-26.7l-22.2 22.2"/></g><ellipse class="st5" cx="371.1" cy="243.8" rx="11.1" ry="22.2"/><ellipse class="st6" cx="371.1" cy="243.8" rx="93.3" ry="186.5"/><ellipse class="st7" cx="371.1" cy="243.8" rx="51.1" ry="102.1"/><g class="st8"><linearGradient id="SVGID_1_" gradientUnits="userSpaceOnUse" x1="378.17" y1="276.794" x2="697.952" y2="276.794" gradientTransform="matrix(1 0 0 -1 -316 728.65)"><stop offset="0" stop-color="gray" stop-opacity=".25"/><stop offset=".54" stop-color="gray" stop-opacity=".12"/><stop offset="1" stop-color="gray" stop-opacity=".1"/></linearGradient><path class="st9" d="M381.4 246.8c-4.6-13.7-31.7 4.8-31.7 4.8l-2.2 3-48.2 65.1-118.1-66v-29.5c22.5-2.5 38.7-22.8 36.2-45.3-.1-.8-.2-1.6-.3-2.5 5.9-2.3 10.8-7.2 15.2-12 4.1-4.4 8.5-9.7 8.1-15.5.1-.9 0-1.9-.2-2.8-.9-4.9-5.4-8.5-10.1-10.2s-9.8-2-14.7-3c-11.7-2.3-22.3-8.4-33.7-11.9-5.2-1.6-10.5-2.6-15.9-3-3.9-.3-7.9-.3-11.4 1.3-3.9 1.8-6.7 5.2-9.8 8.1-3.8 3.5-8.1 6.3-12.9 8.4-7.1 3-15 4.2-21.4 8.5-1.8 1.1-3.2 2.5-4.3 4.3-.9 1.9-1.3 4-1.1 6.1 0 1.9.1 3.7.4 5.6 1.1 7.8 2.4 15.9 6.4 22.7 3.2 5.6 8.1 10.1 12.9 14.4l10.7 9.8c2.2 2 4.6 4.5 7.4 5.5-.2-1.3.6-2.7 1.7-4l-3.5 24.3c-6.5-2-13.2-3.1-20-3.2-9.1-.1-18.4 1.5-22.3 7.8l-.6 1.2C85.4 253.7 56.6 302 73.6 419.4c-1.5 14.4-2.3 23.5-2.3 23.5l.1 1.4-.1 1.1.2.2 9.4 129.6-18.2 127.7h4v14.2h-4.6v22.8s63.3-4 73-18.2c8-11.8-31.8-7.2-45.6-5.2v-8.7h.3V703h4.8l18.2-86.7c18.8-32.4 9.1-113.5 9.1-113.5l22.8 13.7 18.2 95.3L149.3 753h4v9.9H148v22.8s63.3-4 73-18.2c8-11.8-31.8-7.2-45.6-5.2l-1.5-9.2h2.8L195 625.3c9-34.6-3.3-136.1-4.9-149.1l22.6-149.4-.3-.4.3-2.1 91.2 31.9s9.1 9.1 18.5-18c8.8-25.3 32.8-59.3 35.9-63.6l.3-.5c0 .1 27.4-13.6 22.8-27.3z"/></g><path class="st10" d="M70.8 691.8V714H93v-31zm84.4 44.5v26.6l22.2-4.4-4.4-26.7z"/><path class="st11" d="M106.6 239.1s-53 39.7-26.9 195.2l26.9-195.2z"/><path class="st12" d="M103.3 237s-53 39.7-26.9 195.2L103.3 237zm72.1 512.8l-2.2-13.3-17.8 4.5v8.8zM71.1 701h22.2v-13.3l-22.2 8.8z"/><path class="st10" d="M146.8 212.7l-4.4 31.1 39.9 22.2v-44.4z"/><path class="st13" d="M66.9 696.3l17.8-124.4-9.4-128.8 115.5 31.1s14.3 110.5 4.9 146.6l-17.8 124.4h-26.6l13.3-137.7-17.8-92.8-22.2-13.3s9.4 79-8.9 110.5L98 696.3H66.9z"/><path class="st10" d="M377.3 252.2c-4.4-13.3-30.8 4.7-30.8 4.7l-2.2 2.9 10.5 19.5.3-.5s26.6-13.3 22.2-26.6z"/><path class="st12" d="M146.3 241.3s-35.5-9.4-44.4 4.4-26.6 199.9-26.6 199.9 52.8 44.4 115.5 31.1L213 330.1l-66.7-88.8z"/><path class="st11" d="M297.3 323.2l-140.4-78.4c-10.2-5.7-21.6-8.8-33.3-9-8.9-.1-17.9 1.5-21.8 7.5-8.8 13.8-26.5 199.9-26.5 199.9s52.8 44.4 115.5 31.1L213 327.7l88.8 31.1s8.9 8.9 18-17.5c8.5-24.7 31.9-57.8 35-62l-10.5-19.5-47 63.4z"/><path class="st12" d="M146.2 219.6c7.6 9.7 19.2 15.3 31.4 15.3 1.5 0 3-.1 4.4-.3V226l-35.5-8.9-.3 2.5z"/><circle class="st10" cx="177.9" cy="190.5" r="40"/><path class="st14" d="M66.4 710.1v22.2s61.7-4 71.1-17.8-48.9-4.4-48.9-4.4H66.4zm83.6 44.7V777s61.7-4 71.1-17.8-48.9-4.4-48.9-4.4H150z"/><path class="st12" d="M152.5 208.8l15.6-22.4c2.3-3.3 4.7-6.7 7.9-9.1s7.5-3.8 11.4-2.5c2.3.8 4.3 2.4 6.2 3.8 5.8 4.2 13 7.4 20.1 6.1 7.4-1.3 13.1-7.1 18.3-12.6 4.3-4.6 8.9-10.2 7.7-16.3-.9-4.8-5.2-8.3-9.8-9.9-4.6-1.7-9.5-1.9-14.3-2.9-11.4-2.2-21.7-8.2-32.8-11.5-5-1.5-10.2-2.6-15.5-3-3.8-.3-7.7-.3-11.1 1.2-3.8 1.7-6.5 5-9.5 7.9-3.7 3.4-7.9 6.2-12.5 8.1-6.9 2.9-14.6 4.1-20.8 8.3-1.7 1-3.2 2.5-4.2 4.2-1.6 3-1.2 6.6-.7 9.9 1.1 7.6 2.3 15.5 6.2 22.1 3.2 5.5 7.9 9.8 12.5 14.1l10.4 9.6c2.1 1.9 4.5 4.3 7.2 5.3-.4-3.6 5.8-7.6 7.7-10.4z"/><path class="st14" d="M152.5 207.3l15.6-22.4c2.3-3.3 4.7-6.7 7.9-9.1s7.5-3.8 11.4-2.5c2.3.8 4.3 2.4 6.2 3.8 5.8 4.2 13 7.4 20.1 6.1 7.4-1.3 13.1-7.1 18.3-12.6 4.3-4.6 8.9-10.2 7.7-16.3-.9-4.8-5.2-8.3-9.8-9.9-4.6-1.7-9.5-1.9-14.3-2.9-11.4-2.2-21.7-8.2-32.8-11.5-5-1.5-10.2-2.6-15.5-3-3.8-.3-7.7-.3-11.1 1.2-3.8 1.7-6.5 5-9.5 7.9-3.7 3.4-7.9 6.2-12.5 8.1-6.9 2.9-14.6 4.1-20.8 8.3-1.7 1-3.2 2.5-4.2 4.2-1.6 3-1.2 6.6-.7 9.9 1.1 7.6 2.3 15.5 6.2 22.1 3.2 5.5 7.9 9.8 12.5 14.1l10.4 9.6c2.1 1.9 4.5 4.3 7.2 5.3-.4-3.5 5.8-7.6 7.7-10.4z"/><g class="st8"><path class="st15" d="M3.5 110.3H5v8.4H3.5z"/><path class="st15" d="M0 113.7h8.4v1.5H0z"/></g><g class="st8"><path class="st15" d="M528.5 519.3h1.5v8.4h-1.5z"/><path class="st15" d="M525 522.7h8.4v1.5H525z"/></g><g class="st8"><path class="st15" d="M492 341.2h1.5v8.4H492z"/><path class="st15" d="M488.5 344.7h8.4v1.5h-8.4z"/></g><g class="st8"><path class="st15" d="M428.8 512h1.5v8.4h-1.5z"/><path class="st15" d="M425.4 515.4h8.4v1.5h-8.4z"/></g><g class="st8"><path class="st15" d="M384.4 619.1h1.5v8.4h-1.5z"/><path class="st15" d="M381 622.5h8.4v1.5H381z"/></g><g class="st8"><path class="st15" d="M66.6 240.1h1.5v8.4h-1.5z"/><path class="st15" d="M63.2 243.5h8.4v1.5h-8.4z"/></g><path class="st16" d="M89.7 109.5c-.8-.4-1.3-1.3-1-2.2v-.2c0-.5-.4-.9-.9-1-.3 0-.6.1-.8.4 0 .1-.1.1-.1.2-.4.8-1.3 1.3-2.2 1h-.2c-.5 0-.9.4-1 .9 0 .3.1.6.4.8.1 0 .1.1.2.1.8.4 1.3 1.3 1 2.2v.2c0 .5.4.9.9 1 .3 0 .6-.1.8-.4 0-.1.1-.1.1-.2.4-.8 1.3-1.3 2.2-1h.2c.5 0 .9-.4 1-.9 0-.3-.1-.6-.4-.8-.1-.1-.2-.1-.2-.1zm333.1-74.2c-.8-.4-1.3-1.3-1-2.2v-.2c0-.5-.4-.9-.9-1-.3 0-.6.1-.8.4 0 .1-.1.1-.1.2-.4.8-1.3 1.3-2.2 1h-.2c-.5 0-.9.4-1 .9 0 .3.1.6.4.8.1 0 .1.1.2.1.8.4 1.3 1.3 1 2.2v.2c0 .5.4.9.9 1 .3 0 .6-.1.8-.4 0-.1.1-.1.1-.2.4-.8 1.3-1.3 2.2-1h.2c.5 0 .9-.4 1-.9 0-.3-.1-.6-.4-.8 0-.1-.1-.1-.2-.1zm-409.5 264c-.8-.4-1.3-1.3-1-2.2v-.2c0-.5-.4-.9-.9-1-.3 0-.6.1-.8.4 0 .1-.1.1-.1.2-.4.8-1.3 1.3-2.2 1h-.2c-.5 0-.9.4-1 .9 0 .3.1.6.4.8.1 0 .1.1.2.1.8.4 1.3 1.3 1 2.2v.2c0 .5.4.9.9 1 .3 0 .6-.1.8-.4 0-.1.1-.1.1-.2.4-.8 1.3-1.3 2.2-1h.2c.5 0 .9-.4 1-.9 0-.3-.1-.6-.4-.8-.1-.1-.2-.1-.2-.1zm13.3 186.5c-.8-.4-1.3-1.3-1-2.2v-.2c0-.5-.4-.9-.9-1-.3 0-.6.1-.8.4 0 .1-.1.1-.1.2-.4.8-1.3 1.3-2.2 1h-.2c-.5 0-.9.4-1 .9 0 .3.1.6.4.8.1 0 .1.1.2.1.8.4 1.3 1.3 1 2.2v.2c0 .5.4.9.9 1 .3 0 .6-.1.8-.4 0-.1.1-.1.1-.2.4-.8 1.3-1.3 2.2-1h.2c.5 0 .9-.4 1-.9 0-.3-.1-.6-.4-.8-.1 0-.1-.1-.2-.1z"/><circle class="st17" cx="248.7" cy="134.5" r="3"/><circle class="st16" cx="328.6" cy="520.9" r="3"/><circle class="st16" cx="510.7" cy="214.4" r="3"/><circle class="st18" cx="564" cy="347.6" r="3"/><circle class="st17" cx="365.7" cy="11.6" r="3"/></svg>