<svg id="d208afe9-d246-44b1-9723-4e792280c828" xmlns="http://www.w3.org/2000/svg" viewBox="0 0 904 754.8"><style>.st0{fill:url(#SVGID_1_)}.st1{opacity:.7}.st2,.st3,.st4,.st5{fill:none;stroke:#ffc021;stroke-width:4;stroke-linecap:round;stroke-linejoin:round}.st3{stroke-dasharray:12.52,33.38}.st4{stroke-dasharray:11.93,31.8}.st5{stroke-dasharray:11.55,30.79}.st6{fill:#e0e0e0}.st7{fill:url(#SVGID_2_)}.st8{fill:#f5f5f5}.st9{fill:url(#SVGID_3_)}.st10,.st11{fill:#fff}.st11{opacity:.2;enable-background:new}.st12{fill:#a32655}</style><title>server</title><linearGradient id="SVGID_1_" gradientUnits="userSpaceOnUse" x1="187.387" y1="378.615" x2="187.387" y2="753.39" gradientTransform="matrix(1 0 0 -1 0 756)"><stop offset="0" stop-color="gray" stop-opacity=".25"/><stop offset=".54" stop-color="gray" stop-opacity=".12"/><stop offset="1" stop-color="gray" stop-opacity=".1"/></linearGradient><circle class="st0" cx="187.4" cy="190" r="187.4"/><g class="st1"><path class="st2" d="M461 190h5.2"/><path class="st3" d="M495.4 190h145.7"/><path class="st2" d="M655.6 190h5.3v4.9"/><path class="st4" d="M660.9 221v94.7"/><path class="st2" d="M660.9 328.7v5"/></g><g class="st1"><path class="st2" d="M367.6 611.7l-4.7-.1"/><path class="st3" d="M336.6 611.5l-131.4-.8"/><path class="st2" d="M192.1 610.6h-4.7v-6"/><path class="st5" d="M187.6 573.8l.3-69.3"/><path class="st2" d="M188 489.1v-6"/></g><path class="st6" d="M721.2 630.5s11.9 80.5 82.3 107.3h-285c70.3-26.8 82.3-107.3 82.3-107.3h120.4z"/><linearGradient id="SVGID_2_" gradientUnits="userSpaceOnUse" x1="660.915" y1="1.23" x2="660.915" y2="18.23" gradientTransform="matrix(1 0 0 -1 0 756)"><stop offset="0" stop-color="gray" stop-opacity=".25"/><stop offset=".54" stop-color="gray" stop-opacity=".12"/><stop offset="1" stop-color="gray" stop-opacity=".1"/></linearGradient><path class="st7" d="M517.1 737.8h287.6v17H517.1z"/><path class="st8" d="M518.5 737.8h285v13.1h-285z"/><linearGradient id="SVGID_3_" gradientUnits="userSpaceOnUse" x1="810" y1="24" x2="810" y2="339" gradientTransform="matrix(1 0 0 -1 -148 683.38)"><stop offset="0" stop-color="gray" stop-opacity=".25"/><stop offset=".54" stop-color="gray" stop-opacity=".12"/><stop offset="1" stop-color="gray" stop-opacity=".1"/></linearGradient><path class="st9" d="M893.3 344.4H430.8c-5.9 0-10.8 4.8-10.8 10.8v291.4c0 7.1 5.8 12.9 12.9 12.9h458.3c7.1 0 12.9-5.8 12.9-12.9V355.1c-.1-5.9-4.9-10.7-10.8-10.7z"/><path class="st10" d="M436.6 348.8h448.9c5.9 0 10.8 4.8 10.8 10.8V609H425.8V359.5c0-5.9 4.8-10.7 10.8-10.7z"/><path class="st8" d="M883.3 651.9H438.7c-7.1 0-12.9-5.8-12.9-12.9v-30h470.4v30.1c0 7.1-5.8 12.8-12.9 12.8z"/><path class="st11" d="M465.9 383.8H875v-14H449.3v210h16.6z"/><path class="st12" d="M669.6 490.6h-4.4c-.6 0-.8.2-.8.8 0 1.7-.1 3.3-.8 4.8-.5 1.1-1.3 1.6-2.5 1.6-1.8 0-2.7-.6-3.2-2.5-.7-2.6-.6-5.2-.6-7.9 0-1.4-.1-2.9 0-4.3.1-1.6.2-3.2.9-4.7.6-1.2 1.5-1.8 2.8-1.7 1.3.1 2.2.7 2.7 2 .4 1.1.5 2.2.5 3.4 0 .4.1.6.6.6h4.7c.5 0 .6-.2.6-.6-.1-.9-.1-1.7-.2-2.6-.4-2.7-1.5-4.9-4.1-6.1-1.7-.8-3.5-.9-5.3-.8-4.5.1-7.4 2.3-8.3 6.8-1.1 5.4-1.1 11 0 16.4.6 3 2.3 5.2 5.4 6 2.1.6 4.3.6 6.5.1 2.5-.5 4.2-2 5.1-4.3.9-2 1-4.2 1-6.4.1-.7-.2-.6-.6-.6z"/><path class="st12" d="M449.1 369.9V580h425.6V369.9H449.1zm236.4 138.9h-49.1c-.8 0-1-.2-1-1v-39.5c0-.9.3-1 1.1-1h32.3c.8 0 1.1-.2 1-1.1-.3-4.9-.3-9.8-1.6-14.5-.4-1.7-1.1-3.2-2.2-4.6-2.6-3.4-10.6-3.2-12.5 1.9-.9 2.3-1.3 4.7-1.5 7.1-.1 1.1-.1 2.2-.1 3.4 0 .5-.1.7-.6.7h-13.6c-.3 0-.6 0-.6-.5.2-4.6.2-9.3 2-13.7 2.6-6.7 7.6-10.5 14.6-11.6 4.5-.8 9.1-.7 13.6.2 7.4 1.6 12.2 6.2 14.7 13.2 1.4 3.8 1.9 7.8 2.3 11.9.2 2.3.3 4.6.4 6.9 0 .7.3.7.8.7 1.3 0 1.3 0 1.3 1.3v39.2c-.3.7-.4 1-1.3 1zm-465-370.6c0-1.6 0-1.7-1.6-1.7-.6 0-1 0-1.1-.9-.1-3-.3-5.9-.5-8.9-.4-5.2-1.1-10.4-2.9-15.3-3.3-9.1-9.5-15.1-19.1-17.1-5.8-1.2-11.8-1.3-17.6-.3-9.1 1.5-15.6 6.4-19 15-2.2 5.7-2.3 11.7-2.5 17.7 0 .6.4.6.8.6h17.6c.7 0 .8-.2.8-.8 0-1.4.1-2.9.2-4.3.2-3.1.8-6.2 1.9-9.2 2.6-6.6 12.8-7 16.2-2.5 1.4 1.8 2.2 3.8 2.8 5.9 1.7 6.1 1.8 12.5 2.1 18.8.1 1.1-.3 1.4-1.3 1.4h-41.8c-1 0-1.4.2-1.4 1.3v51.2c0 1.1.3 1.3 1.3 1.3H219c1.1 0 1.4-.3 1.4-1.4.1-17 .1-33.9.1-50.8zm-22.3 37.4c-1.3 3-3.5 4.8-6.7 5.5-2.8.6-5.6.6-8.4-.2-4-1.1-6.2-3.9-7-7.8-1.4-7-1.5-14.2 0-21.2 1.2-5.7 4.9-8.6 10.8-8.8 2.3-.1 4.7.1 6.8 1.1 3.3 1.6 4.8 4.5 5.3 8 .1 1.1.2 2.2.3 3.4.1.6-.1.8-.8.8h-6c-.6 0-.7-.2-.7-.8-.1-1.5-.1-3-.7-4.4-.6-1.6-1.7-2.4-3.4-2.5-1.7-.1-2.9.6-3.6 2.2-.9 1.9-1 4-1.1 6.1-.1 1.8 0 3.7 0 5.5 0 3.4-.2 6.8.7 10.2.7 2.4 1.8 3.2 4.1 3.2 1.5 0 2.6-.7 3.2-2.1.9-2 1.1-4.1 1.1-6.2 0-.8.2-1.1 1-1 1.9.1 3.8 0 5.7 0 .4 0 .9-.1.9.6-.2 3-.4 5.8-1.5 8.4z"/><path class="st12" d="M187.4 16.2C91.4 16.2 13.6 94 13.6 190s77.8 173.8 173.8 173.8S361.2 286 361.2 190 283.4 16.2 187.4 16.2zm119.1 201.6l-19.3 3.2c-1.9 6.1-4.3 12-7.3 17.6l11.6 16.2c3.8 4.6 3.4 11.6-1 16.1l-22.2 22.2c-4.3 4.3-11.6 4.6-16.3.8l-16-11.4c-5.6 3-11.5 5.4-17.5 7.3l-3.3 19.6c-.6 6-5.8 10.7-12.1 10.7h-31.4c-6.3 0-11.5-4.7-12.1-10.9l-3.2-19.3c-6.1-1.9-11.9-4.3-17.6-7.3l-16.2 11.6c-1.9 1.6-4.7 2.6-7.5 2.6-3.2 0-6.3-1.3-8.6-3.6L84.3 271c-4.4-4.4-4.8-11.4-.8-16.3l11.4-15.9c-3-5.6-5.4-11.5-7.3-17.6L68 217.8c-5.9-.6-10.7-5.8-10.7-12.1v-31.4c0-6.3 4.7-11.5 10.9-12.1l19.3-3.2c1.9-6.1 4.3-11.9 7.3-17.6l-11.5-16.2c-3.8-4.6-3.5-11.6 1-16.1l22.2-22.2c4.3-4.3 11.6-4.6 16.3-.8l16 11.4c5.6-3 11.5-5.4 17.6-7.3l3.3-19.6c.6-6 5.8-10.7 12.1-10.7h31.4c6.3 0 11.5 4.7 12.1 10.9l3.2 19.3c6.1 1.9 11.9 4.3 17.5 7.3l16.2-11.6c1.9-1.6 4.7-2.6 7.5-2.6 3.2 0 6.3 1.3 8.6 3.6l22.2 22.2c4.4 4.4 4.8 11.4.8 16.3l-11.4 16c3 5.6 5.4 11.5 7.3 17.6l19.6 3.3c6 .6 10.7 5.8 10.7 12.1v31.4c-.1 6.3-4.8 11.5-11 12.1z"/><path d="M153.7 201.8h5l19.3 47.1h-6.4l-5.6-13.8h-19.8l-5.5 13.8h-6.4l19.4-47.1zm11 28.7l-8.5-21.8-8.8 21.8h17.3zm19.6 18.4v-47.1H204c2.1 0 4 .4 5.7 1.3 1.7.9 3.3 2 4.5 3.5 1.3 1.4 2.2 3.1 3 4.8.7 1.8 1.1 3.6 1.1 5.5s-.3 3.8-1 5.6c-.7 1.8-1.6 3.4-2.8 4.8-1.2 1.4-2.7 2.5-4.4 3.4-1.7.8-3.6 1.3-5.7 1.3h-14.1v16.9h-6zm5.9-22.2H204c1.2 0 2.4-.3 3.4-.8s1.8-1.2 2.6-2.1c.7-.9 1.3-2 1.7-3.2s.6-2.5.6-3.8c0-1.4-.2-2.7-.7-3.9s-1.1-2.2-1.9-3.1c-.8-.9-1.7-1.6-2.7-2.1-1-.5-2.1-.7-3.3-.7h-13.3v19.7zm35.4 22.2v-47.1h6v47.1h-6z"/></svg>