<?xml version="1.0" encoding="utf-8"?>
<!-- Generator: Adobe Illustrator 21.1.0, SVG Export Plug-In . SVG Version: 6.00 Build 0)  -->
<svg version="1.1" id="_x36_670c59b-7363-437f-8bc4-669e571fa4b5"
	 xmlns="http://www.w3.org/2000/svg" xmlns:xlink="http://www.w3.org/1999/xlink" x="0px" y="0px" viewBox="0 0 567 785.7"
	 style="enable-background:new 0 0 567 785.7;" xml:space="preserve">
<style type="text/css">
	.st0{fill:#F5F5F5;}
	.st1{opacity:0.1;enable-background:new    ;}
	.st2{fill:#4CAF50;}
	.st3{fill:none;stroke:#FFFFFF;stroke-width:7;stroke-linecap:round;stroke-miterlimit:10;}
	.st4{opacity:0.4;}
	.st5{opacity:0.3;enable-background:new    ;}
	.st6{opacity:0.1;fill:#9A1144;enable-background:new    ;}
	.st7{opacity:0.1;fill:#FFFFFF;enable-background:new    ;}
	.st8{opacity:0.5;}
	.st9{fill:url(#SVGID_1_);}
	.st10{fill:#FDA57D;}
	.st11{fill:#9A1144;}
	.st12{opacity:5.000000e-02;enable-background:new    ;}
	.st13{fill:#373737;}
	.st14{fill:#333333;}
	.st15{fill:#47E6B1;}
	.st16{opacity:0.5;fill:#4D8AF0;enable-background:new    ;}
	.st17{opacity:0.5;fill:#F55F44;enable-background:new    ;}
	.st18{opacity:0.5;fill:#47E6B1;enable-background:new    ;}
</style>
<title>choose</title>
<polygon class="st0" points="528.8,115.5 474.5,99.1 471.2,173.3 528.3,190.5 "/>
<polygon class="st0" points="146.8,0 146.8,75.5 471.2,173.3 474.5,99.1 "/>
<polygon class="st1" points="528.8,115.5 474.5,99.1 471.2,173.3 528.3,190.5 "/>
<polygon class="st2" points="528.8,257.6 474.5,241.2 471.2,315.4 528.3,332.6 "/>
<polygon class="st2" points="146.8,142.1 146.8,217.6 471.2,315.4 474.5,241.2 "/>
<polygon class="st1" points="528.5,257.6 474.2,241.2 470.9,315.4 528,332.6 "/>
<polyline class="st3" points="488.3,283.8 497.2,297.1 514.9,274.9 "/>
<g class="st4">
	<line class="st3" x1="488.8" y1="128.3" x2="506.5" y2="159.4"/>
	<line class="st3" x1="511" y1="132.7" x2="488.8" y2="154.9"/>
</g>
<polygon class="st0" points="528.8,390.8 474.5,374.4 471.2,448.6 528.3,465.8 "/>
<polygon class="st0" points="146.8,275.4 146.8,350.9 471.2,448.6 474.5,374.4 "/>
<polygon class="st1" points="528.8,390.8 474.5,374.4 471.2,448.6 528.3,465.8 "/>
<g class="st4">
	<line class="st3" x1="488.8" y1="403.7" x2="506.5" y2="434.8"/>
	<line class="st3" x1="511" y1="408.1" x2="488.8" y2="430.3"/>
</g>
<ellipse class="st5" cx="371.1" cy="243.8" rx="11.1" ry="22.2"/>
<ellipse class="st6" cx="371.1" cy="243.8" rx="93.3" ry="186.5"/>
<ellipse class="st7" cx="371.1" cy="243.8" rx="51.1" ry="102.1"/>
<g class="st8">
	
		<linearGradient id="SVGID_1_" gradientUnits="userSpaceOnUse" x1="378.17" y1="276.7938" x2="697.9525" y2="276.7938" gradientTransform="matrix(1 0 0 -1 -316 728.65)">
		<stop  offset="0" style="stop-color:#808080;stop-opacity:0.25"/>
		<stop  offset="0.54" style="stop-color:#808080;stop-opacity:0.12"/>
		<stop  offset="1" style="stop-color:#808080;stop-opacity:0.1"/>
	</linearGradient>
	<path class="st9" d="M381.4,246.8c-4.6-13.7-31.7,4.8-31.7,4.8l-2.2,3l-48.2,65.1l-118.1-66v-29.5c22.5-2.5,38.7-22.8,36.2-45.3
		c-0.1-0.8-0.2-1.6-0.3-2.5c5.9-2.3,10.8-7.2,15.2-12c4.1-4.4,8.5-9.7,8.1-15.5c0.1-0.9,0-1.9-0.2-2.8c-0.9-4.9-5.4-8.5-10.1-10.2
		s-9.8-2-14.7-3c-11.7-2.3-22.3-8.4-33.7-11.9c-5.2-1.6-10.5-2.6-15.9-3c-3.9-0.3-7.9-0.3-11.4,1.3c-3.9,1.8-6.7,5.2-9.8,8.1
		c-3.8,3.5-8.1,6.3-12.9,8.4c-7.1,3-15,4.2-21.4,8.5c-1.8,1.1-3.2,2.5-4.3,4.3c-0.9,1.9-1.3,4-1.1,6.1c0,1.9,0.1,3.7,0.4,5.6
		c1.1,7.8,2.4,15.9,6.4,22.7c3.2,5.6,8.1,10.1,12.9,14.4l10.7,9.8c2.2,2,4.6,4.5,7.4,5.5c-0.2-1.3,0.6-2.7,1.7-4l-3.5,24.3
		c-6.5-2-13.2-3.1-20-3.2c-9.1-0.1-18.4,1.5-22.3,7.8c-0.2,0.4-0.4,0.8-0.6,1.2c-12.6,14.9-41.4,63.2-24.4,180.6
		c-1.5,14.4-2.3,23.5-2.3,23.5l0.1,1.4l-0.1,1.1l0.2,0.2l9.4,129.6L62.7,702.9h4v14.2h-4.6v22.8c0,0,63.3-4,73-18.2
		c8-11.8-31.8-7.2-45.6-5.2v-8.7h0.3v-4.8h4.8l18.2-86.7c18.8-32.4,9.1-113.5,9.1-113.5l22.8,13.7l18.2,95.3L149.3,753h4v9.9h-5.3
		v22.8c0,0,63.3-4,73-18.2c8-11.8-31.8-7.2-45.6-5.2l-1.5-9.2h2.8L195,625.3c9-34.6-3.3-136.1-4.9-149.1l22.6-149.4l-0.3-0.4
		l0.3-2.1l91.2,31.9c0,0,9.1,9.1,18.5-18c8.8-25.3,32.8-59.3,35.9-63.6l0.3-0.5C358.6,274.2,386,260.5,381.4,246.8z"/>
</g>
<polygon class="st10" points="70.8,691.8 70.8,714 93,714 93,683 "/>
<polygon class="st10" points="155.2,736.3 155.2,762.9 177.4,758.5 173,731.8 "/>
<path class="st11" d="M106.6,239.1c0,0-53,39.7-26.9,195.2L106.6,239.1z"/>
<path class="st12" d="M103.3,237c0,0-53,39.7-26.9,195.2L103.3,237z"/>
<polygon class="st12" points="175.4,749.8 173.2,736.5 155.4,741 155.4,749.8 "/>
<polygon class="st12" points="71.1,701 93.3,701 93.3,687.7 71.1,696.5 "/>
<polygon class="st10" points="146.8,212.7 142.4,243.8 182.3,266 182.3,221.6 "/>
<path class="st13" d="M66.9,696.3l17.8-124.4l-9.4-128.8l115.5,31.1c0,0,14.3,110.5,4.9,146.6l-17.8,124.4h-26.6l13.3-137.7
	l-17.8-92.8l-22.2-13.3c0,0,9.4,79-8.9,110.5L98,696.3H66.9z"/>
<path class="st10" d="M377.3,252.2c-4.4-13.3-30.8,4.7-30.8,4.7l-2.2,2.9l10.5,19.5l0.3-0.5C355.1,278.8,381.7,265.5,377.3,252.2z"
	/>
<path class="st12" d="M146.3,241.3c0,0-35.5-9.4-44.4,4.4S75.3,445.6,75.3,445.6s52.8,44.4,115.5,31.1l22.2-146.6L146.3,241.3z"/>
<path class="st11" d="M297.3,323.2l-140.4-78.4c-10.2-5.7-21.6-8.8-33.3-9c-8.9-0.1-17.9,1.5-21.8,7.5
	C93,257.1,75.3,443.2,75.3,443.2s52.8,44.4,115.5,31.1l22.2-146.6l88.8,31.1c0,0,8.9,8.9,18-17.5c8.5-24.7,31.9-57.8,35-62
	l-10.5-19.5L297.3,323.2z"/>
<path class="st12" d="M146.2,219.6c7.6,9.7,19.2,15.3,31.4,15.3c1.5,0,3-0.1,4.4-0.3V226l-35.5-8.9L146.2,219.6z"/>
<circle class="st10" cx="177.9" cy="190.5" r="40"/>
<path class="st14" d="M66.4,710.1v22.2c0,0,61.7-4,71.1-17.8s-48.9-4.4-48.9-4.4H66.4z"/>
<path class="st14" d="M150,754.8V777c0,0,61.7-4,71.1-17.8s-48.9-4.4-48.9-4.4H150z"/>
<path class="st12" d="M152.5,208.8l15.6-22.4c2.3-3.3,4.7-6.7,7.9-9.1s7.5-3.8,11.4-2.5c2.3,0.8,4.3,2.4,6.2,3.8
	c5.8,4.2,13,7.4,20.1,6.1c7.4-1.3,13.1-7.1,18.3-12.6c4.3-4.6,8.9-10.2,7.7-16.3c-0.9-4.8-5.2-8.3-9.8-9.9
	c-4.6-1.7-9.5-1.9-14.3-2.9c-11.4-2.2-21.7-8.2-32.8-11.5c-5-1.5-10.2-2.6-15.5-3c-3.8-0.3-7.7-0.3-11.1,1.2c-3.8,1.7-6.5,5-9.5,7.9
	c-3.7,3.4-7.9,6.2-12.5,8.1c-6.9,2.9-14.6,4.1-20.8,8.3c-1.7,1-3.2,2.5-4.2,4.2c-1.6,3-1.2,6.6-0.7,9.9c1.1,7.6,2.3,15.5,6.2,22.1
	c3.2,5.5,7.9,9.8,12.5,14.1l10.4,9.6c2.1,1.9,4.5,4.3,7.2,5.3C144.4,215.6,150.6,211.6,152.5,208.8z"/>
<path class="st14" d="M152.5,207.3l15.6-22.4c2.3-3.3,4.7-6.7,7.9-9.1s7.5-3.8,11.4-2.5c2.3,0.8,4.3,2.4,6.2,3.8
	c5.8,4.2,13,7.4,20.1,6.1c7.4-1.3,13.1-7.1,18.3-12.6c4.3-4.6,8.9-10.2,7.7-16.3c-0.9-4.8-5.2-8.3-9.8-9.9
	c-4.6-1.7-9.5-1.9-14.3-2.9c-11.4-2.2-21.7-8.2-32.8-11.5c-5-1.5-10.2-2.6-15.5-3c-3.8-0.3-7.7-0.3-11.1,1.2c-3.8,1.7-6.5,5-9.5,7.9
	c-3.7,3.4-7.9,6.2-12.5,8.1c-6.9,2.9-14.6,4.1-20.8,8.3c-1.7,1-3.2,2.5-4.2,4.2c-1.6,3-1.2,6.6-0.7,9.9c1.1,7.6,2.3,15.5,6.2,22.1
	c3.2,5.5,7.9,9.8,12.5,14.1l10.4,9.6c2.1,1.9,4.5,4.3,7.2,5.3C144.4,214.2,150.6,210.1,152.5,207.3z"/>
<g class="st8">
	<rect x="3.5" y="110.3" class="st15" width="1.5" height="8.4"/>
	<rect y="113.7" class="st15" width="8.4" height="1.5"/>
</g>
<g class="st8">
	<rect x="528.5" y="519.3" class="st15" width="1.5" height="8.4"/>
	<rect x="525" y="522.7" class="st15" width="8.4" height="1.5"/>
</g>
<g class="st8">
	<rect x="492" y="341.2" class="st15" width="1.5" height="8.4"/>
	<rect x="488.5" y="344.7" class="st15" width="8.4" height="1.5"/>
</g>
<g class="st8">
	<rect x="428.8" y="512" class="st15" width="1.5" height="8.4"/>
	<rect x="425.4" y="515.4" class="st15" width="8.4" height="1.5"/>
</g>
<g class="st8">
	<rect x="384.4" y="619.1" class="st15" width="1.5" height="8.4"/>
	<rect x="381" y="622.5" class="st15" width="8.4" height="1.5"/>
</g>
<g class="st8">
	<rect x="66.6" y="240.1" class="st15" width="1.5" height="8.4"/>
	<rect x="63.2" y="243.5" class="st15" width="8.4" height="1.5"/>
</g>
<path class="st16" d="M89.7,109.5c-0.8-0.4-1.3-1.3-1-2.2c0-0.1,0-0.1,0-0.2l0,0c0-0.5-0.4-0.9-0.9-1c-0.3,0-0.6,0.1-0.8,0.4l0,0
	c0,0.1-0.1,0.1-0.1,0.2c-0.4,0.8-1.3,1.3-2.2,1h-0.2l0,0c-0.5,0-0.9,0.4-1,0.9c0,0.3,0.1,0.6,0.4,0.8l0,0c0.1,0,0.1,0.1,0.2,0.1
	c0.8,0.4,1.3,1.3,1,2.2c0,0.1,0,0.1,0,0.2l0,0c0,0.5,0.4,0.9,0.9,1c0.3,0,0.6-0.1,0.8-0.4l0,0c0-0.1,0.1-0.1,0.1-0.2
	c0.4-0.8,1.3-1.3,2.2-1h0.2l0,0c0.5,0,0.9-0.4,1-0.9c0-0.3-0.1-0.6-0.4-0.8l0,0C89.8,109.5,89.7,109.5,89.7,109.5z"/>
<path class="st16" d="M422.8,35.3c-0.8-0.4-1.3-1.3-1-2.2c0-0.1,0-0.1,0-0.2l0,0c0-0.5-0.4-0.9-0.9-1c-0.3,0-0.6,0.1-0.8,0.4l0,0
	c0,0.1-0.1,0.1-0.1,0.2c-0.4,0.8-1.3,1.3-2.2,1h-0.2l0,0c-0.5,0-0.9,0.4-1,0.9c0,0.3,0.1,0.6,0.4,0.8l0,0c0.1,0,0.1,0.1,0.2,0.1
	c0.8,0.4,1.3,1.3,1,2.2c0,0.1,0,0.1,0,0.2l0,0c0,0.5,0.4,0.9,0.9,1c0.3,0,0.6-0.1,0.8-0.4l0,0c0-0.1,0.1-0.1,0.1-0.2
	c0.4-0.8,1.3-1.3,2.2-1h0.2l0,0c0.5,0,0.9-0.4,1-0.9c0-0.3-0.1-0.6-0.4-0.8l0,0C423,35.3,422.9,35.3,422.8,35.3z"/>
<path class="st16" d="M13.3,299.3c-0.8-0.4-1.3-1.3-1-2.2c0-0.1,0-0.1,0-0.2l0,0c0-0.5-0.4-0.9-0.9-1c-0.3,0-0.6,0.1-0.8,0.4l0,0
	c0,0.1-0.1,0.1-0.1,0.2c-0.4,0.8-1.3,1.3-2.2,1H8.1l0,0c-0.5,0-0.9,0.4-1,0.9c0,0.3,0.1,0.6,0.4,0.8l0,0c0.1,0,0.1,0.1,0.2,0.1
	c0.8,0.4,1.3,1.3,1,2.2c0,0.1,0,0.1,0,0.2l0,0c0,0.5,0.4,0.9,0.9,1c0.3,0,0.6-0.1,0.8-0.4l0,0c0-0.1,0.1-0.1,0.1-0.2
	c0.4-0.8,1.3-1.3,2.2-1h0.2l0,0c0.5,0,0.9-0.4,1-0.9c0-0.3-0.1-0.6-0.4-0.8l0,0C13.4,299.3,13.3,299.3,13.3,299.3z"/>
<path class="st16" d="M26.6,485.8c-0.8-0.4-1.3-1.3-1-2.2c0-0.1,0-0.1,0-0.2l0,0c0-0.5-0.4-0.9-0.9-1c-0.3,0-0.6,0.1-0.8,0.4l0,0
	c0,0.1-0.1,0.1-0.1,0.2c-0.4,0.8-1.3,1.3-2.2,1h-0.2l0,0c-0.5,0-0.9,0.4-1,0.9c0,0.3,0.1,0.6,0.4,0.8l0,0c0.1,0,0.1,0.1,0.2,0.1
	c0.8,0.4,1.3,1.3,1,2.2c0,0.1,0,0.1,0,0.2l0,0c0,0.5,0.4,0.9,0.9,1c0.3,0,0.6-0.1,0.8-0.4l0,0c0-0.1,0.1-0.1,0.1-0.2
	c0.4-0.8,1.3-1.3,2.2-1h0.2l0,0c0.5,0,0.9-0.4,1-0.9c0-0.3-0.1-0.6-0.4-0.8l0,0C26.7,485.9,26.7,485.8,26.6,485.8z"/>
<circle class="st17" cx="248.7" cy="134.5" r="3"/>
<circle class="st16" cx="328.6" cy="520.9" r="3"/>
<circle class="st16" cx="510.7" cy="214.4" r="3"/>
<circle class="st18" cx="564" cy="347.6" r="3"/>
<circle class="st17" cx="365.7" cy="11.6" r="3"/>
</svg>
