<?xml version="1.0" encoding="utf-8"?>
<!-- Generator: Adobe Illustrator 21.1.0, SVG Export Plug-In . SVG Version: 6.00 Build 0)  -->
<svg version="1.1" id="d208afe9-d246-44b1-9723-4e792280c828"
	 xmlns="http://www.w3.org/2000/svg" xmlns:xlink="http://www.w3.org/1999/xlink" x="0px" y="0px" viewBox="0 0 904 754.8"
	 style="enable-background:new 0 0 904 754.8;" xml:space="preserve">
<style type="text/css">
	.st0{fill:url(#SVGID_1_);}
	.st1{opacity:0.7;}
	.st2{fill:none;stroke:#FFC021;stroke-width:4;stroke-linecap:round;stroke-linejoin:round;}
	.st3{fill:none;stroke:#FFC021;stroke-width:4;stroke-linecap:round;stroke-linejoin:round;stroke-dasharray:12.52,33.38;}
	.st4{fill:none;stroke:#FFC021;stroke-width:4;stroke-linecap:round;stroke-linejoin:round;stroke-dasharray:11.93,31.8;}
	.st5{fill:none;stroke:#FFC021;stroke-width:4;stroke-linecap:round;stroke-linejoin:round;stroke-dasharray:11.55,30.79;}
	.st6{fill:#E0E0E0;}
	.st7{fill:url(#SVGID_2_);}
	.st8{fill:#F5F5F5;}
	.st9{fill:url(#SVGID_3_);}
	.st10{fill:#FFFFFF;}
	.st11{opacity:0.2;fill:#FFFFFF;enable-background:new    ;}
	.st12{fill:#A32655;}
</style>
<title>server</title>
<linearGradient id="SVGID_1_" gradientUnits="userSpaceOnUse" x1="187.3874" y1="378.615" x2="187.3874" y2="753.3898" gradientTransform="matrix(1 0 0 -1 0 756)">
	<stop  offset="0" style="stop-color:#808080;stop-opacity:0.25"/>
	<stop  offset="0.54" style="stop-color:#808080;stop-opacity:0.12"/>
	<stop  offset="1" style="stop-color:#808080;stop-opacity:0.1"/>
</linearGradient>
<circle class="st0" cx="187.4" cy="190" r="187.4"/>
<g class="st1">
	<line class="st2" x1="461" y1="190" x2="466.2" y2="190"/>
	<line class="st3" x1="495.4" y1="190" x2="641.1" y2="190"/>
	<polyline class="st2" points="655.6,190 660.9,190 660.9,194.9 	"/>
	<line class="st4" x1="660.9" y1="221" x2="660.9" y2="315.7"/>
	<line class="st2" x1="660.9" y1="328.7" x2="660.9" y2="333.7"/>
</g>
<g class="st1">
	<line class="st2" x1="367.6" y1="611.7" x2="362.9" y2="611.6"/>
	<line class="st3" x1="336.6" y1="611.5" x2="205.2" y2="610.7"/>
	<polyline class="st2" points="192.1,610.6 187.4,610.6 187.4,604.6 	"/>
	<line class="st5" x1="187.6" y1="573.8" x2="187.9" y2="504.5"/>
	<line class="st2" x1="188" y1="489.1" x2="188" y2="483.1"/>
</g>
<path class="st6" d="M721.2,630.5c0,0,11.9,80.5,82.3,107.3h-285c70.3-26.8,82.3-107.3,82.3-107.3H721.2z"/>
<linearGradient id="SVGID_2_" gradientUnits="userSpaceOnUse" x1="660.915" y1="1.23" x2="660.915" y2="18.23" gradientTransform="matrix(1 0 0 -1 0 756)">
	<stop  offset="0" style="stop-color:#808080;stop-opacity:0.25"/>
	<stop  offset="0.54" style="stop-color:#808080;stop-opacity:0.12"/>
	<stop  offset="1" style="stop-color:#808080;stop-opacity:0.1"/>
</linearGradient>
<rect x="517.1" y="737.8" class="st7" width="287.6" height="17"/>
<rect x="518.5" y="737.8" class="st8" width="285" height="13.1"/>
<linearGradient id="SVGID_3_" gradientUnits="userSpaceOnUse" x1="810" y1="24" x2="810" y2="339" gradientTransform="matrix(1 0 0 -1 -148 683.38)">
	<stop  offset="0" style="stop-color:#808080;stop-opacity:0.25"/>
	<stop  offset="0.54" style="stop-color:#808080;stop-opacity:0.12"/>
	<stop  offset="1" style="stop-color:#808080;stop-opacity:0.1"/>
</linearGradient>
<path class="st9" d="M893.3,344.4H430.8c-5.9,0-10.8,4.8-10.8,10.8l0,0v291.4c0,7.1,5.8,12.9,12.9,12.9h458.3
	c7.1,0,12.9-5.8,12.9-12.9V355.1C904,349.2,899.2,344.4,893.3,344.4L893.3,344.4z"/>
<path class="st10" d="M436.6,348.8h448.9c5.9,0,10.8,4.8,10.8,10.8l0,0V609l0,0H425.8l0,0V359.5
	C425.8,353.6,430.6,348.8,436.6,348.8C436.6,348.8,436.6,348.8,436.6,348.8z"/>
<path class="st8" d="M883.3,651.9H438.7c-7.1,0-12.9-5.8-12.9-12.9V609h470.4v30.1C896.2,646.2,890.4,651.9,883.3,651.9z"/>
<polygon class="st11" points="465.9,383.8 875,383.8 875,369.8 449.3,369.8 449.3,579.8 465.9,579.8 "/>
<g>
	<path class="st12" d="M669.6,490.6c-1.5,0-2.9,0-4.4,0c-0.6,0-0.8,0.2-0.8,0.8c0,1.7-0.1,3.3-0.8,4.8c-0.5,1.1-1.3,1.6-2.5,1.6
		c-1.8,0-2.7-0.6-3.2-2.5c-0.7-2.6-0.6-5.2-0.6-7.9c0-1.4-0.1-2.9,0-4.3c0.1-1.6,0.2-3.2,0.9-4.7c0.6-1.2,1.5-1.8,2.8-1.7
		c1.3,0.1,2.2,0.7,2.7,2c0.4,1.1,0.5,2.2,0.5,3.4c0,0.4,0.1,0.6,0.6,0.6c1.6,0,3.1,0,4.7,0c0.5,0,0.6-0.2,0.6-0.6
		c-0.1-0.9-0.1-1.7-0.2-2.6c-0.4-2.7-1.5-4.9-4.1-6.1c-1.7-0.8-3.5-0.9-5.3-0.8c-4.5,0.1-7.4,2.3-8.3,6.8c-1.1,5.4-1.1,11,0,16.4
		c0.6,3,2.3,5.2,5.4,6c2.1,0.6,4.3,0.6,6.5,0.1c2.5-0.5,4.2-2,5.1-4.3c0.9-2,1-4.2,1-6.4C670.3,490.5,670,490.6,669.6,490.6z"/>
	<path class="st12" d="M449.1,369.9v210.1h425.6V369.9H449.1z M685.5,508.8c-8.2,0-16.4,0-24.5,0c-8.2,0-16.4,0-24.6,0
		c-0.8,0-1-0.2-1-1c0-13.2,0-26.4,0-39.5c0-0.9,0.3-1,1.1-1c10.8,0,21.5,0,32.3,0c0.8,0,1.1-0.2,1-1.1c-0.3-4.9-0.3-9.8-1.6-14.5
		c-0.4-1.7-1.1-3.2-2.2-4.6c-2.6-3.4-10.6-3.2-12.5,1.9c-0.9,2.3-1.3,4.7-1.5,7.1c-0.1,1.1-0.1,2.2-0.1,3.4c0,0.5-0.1,0.7-0.6,0.7
		c-4.5,0-9.1,0-13.6,0c-0.3,0-0.6,0-0.6-0.5c0.2-4.6,0.2-9.3,2-13.7c2.6-6.7,7.6-10.5,14.6-11.6c4.5-0.8,9.1-0.7,13.6,0.2
		c7.4,1.6,12.2,6.2,14.7,13.2c1.4,3.8,1.9,7.8,2.3,11.9c0.2,2.3,0.3,4.6,0.4,6.9c0,0.7,0.3,0.7,0.8,0.7c1.3,0,1.3,0,1.3,1.3
		c0,13.1,0,26.1,0,39.2C686.5,508.5,686.4,508.8,685.5,508.8z"/>
</g>
<path class="st12" d="M220.5,138.2c0-1.6,0-1.7-1.6-1.7c-0.6,0-1,0-1.1-0.9c-0.1-3-0.3-5.9-0.5-8.9c-0.4-5.2-1.1-10.4-2.9-15.3
	c-3.3-9.1-9.5-15.1-19.1-17.1c-5.8-1.2-11.8-1.3-17.6-0.3c-9.1,1.5-15.6,6.4-19,15c-2.2,5.7-2.3,11.7-2.5,17.7
	c0,0.6,0.4,0.6,0.8,0.6c5.9,0,11.7,0,17.6,0c0.7,0,0.8-0.2,0.8-0.8c0-1.4,0.1-2.9,0.2-4.3c0.2-3.1,0.8-6.2,1.9-9.2
	c2.6-6.6,12.8-7,16.2-2.5c1.4,1.8,2.2,3.8,2.8,5.9c1.7,6.1,1.8,12.5,2.1,18.8c0.1,1.1-0.3,1.4-1.3,1.4c-13.9,0-27.8,0-41.8,0
	c-1,0-1.4,0.2-1.4,1.3c0,17.1,0,34.1,0,51.2c0,1.1,0.3,1.3,1.3,1.3c10.6,0,21.2,0,31.9,0c10.6,0,21.2,0,31.7,0
	c1.1,0,1.4-0.3,1.4-1.4C220.5,172,220.5,155.1,220.5,138.2z M198.2,175.6c-1.3,3-3.5,4.8-6.7,5.5c-2.8,0.6-5.6,0.6-8.4-0.2
	c-4-1.1-6.2-3.9-7-7.8c-1.4-7-1.5-14.2,0-21.2c1.2-5.7,4.9-8.6,10.8-8.8c2.3-0.1,4.7,0.1,6.8,1.1c3.3,1.6,4.8,4.5,5.3,8
	c0.1,1.1,0.2,2.2,0.3,3.4c0.1,0.6-0.1,0.8-0.8,0.8c-2,0-4,0-6,0c-0.6,0-0.7-0.2-0.7-0.8c-0.1-1.5-0.1-3-0.7-4.4
	c-0.6-1.6-1.7-2.4-3.4-2.5c-1.7-0.1-2.9,0.6-3.6,2.2c-0.9,1.9-1,4-1.1,6.1c-0.1,1.8,0,3.7,0,5.5c0,3.4-0.2,6.8,0.7,10.2
	c0.7,2.4,1.8,3.2,4.1,3.2c1.5,0,2.6-0.7,3.2-2.1c0.9-2,1.1-4.1,1.1-6.2c0-0.8,0.2-1.1,1-1c1.9,0.1,3.8,0,5.7,0
	c0.4,0,0.9-0.1,0.9,0.6C199.5,170.2,199.3,173,198.2,175.6z"/>
<path class="st12" d="M187.4,16.2C91.4,16.2,13.6,94,13.6,190s77.8,173.8,173.8,173.8S361.2,286,361.2,190S283.4,16.2,187.4,16.2z
	 M306.5,217.8l-19.3,3.2c-1.9,6.1-4.3,12-7.3,17.6l11.6,16.2c3.8,4.6,3.4,11.6-1,16.1l-22.2,22.2c-4.3,4.3-11.6,4.6-16.3,0.8
	L236,282.5c-5.6,3-11.5,5.4-17.5,7.3l-3.3,19.6c-0.6,6-5.8,10.7-12.1,10.7h-31.4c-6.3,0-11.5-4.7-12.1-10.9l-3.2-19.3
	c-6.1-1.9-11.9-4.3-17.6-7.3l-16.2,11.6c-1.9,1.6-4.7,2.6-7.5,2.6c-3.2,0-6.3-1.3-8.6-3.6l-22.2-22.2c-4.4-4.4-4.8-11.4-0.8-16.3
	l11.4-15.9c-3-5.6-5.4-11.5-7.3-17.6L68,217.8c-5.9-0.6-10.7-5.8-10.7-12.1v-31.4c0-6.3,4.7-11.5,10.9-12.1l19.3-3.2
	c1.9-6.1,4.3-11.9,7.3-17.6l-11.5-16.2c-3.8-4.6-3.5-11.6,1-16.1l22.2-22.2c4.3-4.3,11.6-4.6,16.3-0.8l16,11.4
	c5.6-3,11.5-5.4,17.6-7.3l3.3-19.6c0.6-6,5.8-10.7,12.1-10.7h31.4c6.3,0,11.5,4.7,12.1,10.9l3.2,19.3c6.1,1.9,11.9,4.3,17.5,7.3
	l16.2-11.6c1.9-1.6,4.7-2.6,7.5-2.6c3.2,0,6.3,1.3,8.6,3.6l22.2,22.2c4.4,4.4,4.8,11.4,0.8,16.3l-11.4,16c3,5.6,5.4,11.5,7.3,17.6
	l19.6,3.3c6,0.6,10.7,5.8,10.7,12.1v31.4C317.4,212,312.7,217.2,306.5,217.8z"/>
<g>
	<path d="M153.7,201.8h5l19.3,47.1h-6.4l-5.6-13.8h-19.8l-5.5,13.8h-6.4L153.7,201.8z M164.7,230.5l-8.5-21.8l-8.8,21.8H164.7z"/>
	<path d="M184.3,248.9v-47.1h19.7c2.1,0,4,0.4,5.7,1.3c1.7,0.9,3.3,2,4.5,3.5c1.3,1.4,2.2,3.1,3,4.8c0.7,1.8,1.1,3.6,1.1,5.5
		c0,1.9-0.3,3.8-1,5.6c-0.7,1.8-1.6,3.4-2.8,4.8c-1.2,1.4-2.7,2.5-4.4,3.4c-1.7,0.8-3.6,1.3-5.7,1.3h-14.1v16.9H184.3z M190.2,226.7
		H204c1.2,0,2.4-0.3,3.4-0.8c1-0.5,1.8-1.2,2.6-2.1c0.7-0.9,1.3-2,1.7-3.2s0.6-2.5,0.6-3.8c0-1.4-0.2-2.7-0.7-3.9s-1.1-2.2-1.9-3.1
		c-0.8-0.9-1.7-1.6-2.7-2.1c-1-0.5-2.1-0.7-3.3-0.7h-13.3V226.7z"/>
	<path d="M225.6,248.9v-47.1h6v47.1H225.6z"/>
</g>
</svg>
