<?xml version="1.0" encoding="UTF-8" standalone="no"?>
<svg
   xmlns:dc="http://purl.org/dc/elements/1.1/"
   xmlns:cc="http://creativecommons.org/ns#"
   xmlns:rdf="http://www.w3.org/1999/02/22-rdf-syntax-ns#"
   xmlns:svg="http://www.w3.org/2000/svg"
   xmlns="http://www.w3.org/2000/svg"
   xmlns:sodipodi="http://sodipodi.sourceforge.net/DTD/sodipodi-0.dtd"
   xmlns:inkscape="http://www.inkscape.org/namespaces/inkscape"
   version="1.1"
   id="Layer_1"
   x="0px"
   y="0px"
   width="526"
   height="264"
   viewBox="0 0 526 264"
   enable-background="new 0 0 612 792"
   xml:space="preserve">
<path
   style="fill:#ee3224"
   inkscape:connector-curvature="0"
   d="m 492.27105,196.53748 c -18.63349,0 -33.73587,15.10007 -33.73587,33.73125 0,18.62888 15.10238,33.73126 33.73587,33.73126 18.62657,0 33.72895,-15.10238 33.72895,-33.73126 0,-18.63118 -15.10238,-33.73125 -33.72895,-33.73125"
   id="path3" /><path
   style="fill:#ee3224"
   inkscape:connector-curvature="0"
   d="M 33.731253,4.6141328 C 15.102374,4.6141328 -2.4e-6,19.716509 -2.4e-6,38.345388 c 0,18.628878 15.1023764,33.726642 33.7312554,33.726642 18.628878,0 33.733561,-15.097764 33.733561,-33.726642 0,-18.628879 -15.104683,-33.7312552 -33.733561,-33.7312552"
   id="path5" /><rect
   x="7.851018"
   y="95.396759"
   width="51.762775"
   height="167.35776"
   id="rect7" /><path
   inkscape:connector-curvature="0"
   d="m 350.54673,212.4494 c -18.62426,0 -33.72203,-15.10929 -33.72203,-33.73356 0,-18.62888 15.09777,-33.72664 33.72203,-33.72664 18.63119,0 33.73818,15.09776 33.73818,33.72664 0,18.62427 -15.10699,33.73356 -33.73818,33.73356 m 65.90568,-92.6439 c -14.15905,-15.08623 -33.97342,-24.49869 -55.61909,-24.484851 -16.22329,-0.0092 -31.411,5.281681 -43.96941,14.278991 V 0.0013116 H 265.10575 V 262.75453 h 51.75816 v -14.51886 c 12.54457,8.99962 27.71844,14.29052 43.9302,14.29052 h 0.0392 c 21.64567,0.007 41.46004,-9.40554 55.61909,-24.49408 14.19135,-15.04472 23.04105,-36.10455 23.02951,-59.111 0.0115,-23.00183 -8.83816,-44.0732 -23.02951,-59.11561"
   id="path9" /><path
   inkscape:connector-curvature="0"
   d="m 162.6573,212.4494 c -18.62888,0 -33.72434,-15.10237 -33.72434,-33.73356 0,-18.62888 15.09546,-33.72664 33.72434,-33.72664 18.63349,0 33.73587,15.09776 33.73587,33.72664 0,18.63119 -15.10238,33.73356 -33.73587,33.73356 M 196.47158,95.399067 v 14.338953 c -12.57455,-9.08495 -27.81069,-14.426597 -44.08934,-14.421984 -21.61337,-0.0092 -41.39776,9.403234 -55.533755,24.489464 -14.179812,15.04241 -23.011058,36.10686 -23.001833,59.11561 -0.0092,23.00645 8.822021,44.06859 23.001833,59.111 14.135995,15.09315 33.920385,24.50792 55.533755,24.49408 h 0.0438 c 16.2602,0 31.48712,-5.34395 44.04552,-14.42198 v 14.65262 h 51.76278 V 95.399067 h -51.76278 z"
   id="path11" />
</svg>