<svg id="Layer_0_Image" data-name="Layer 0 Image" xmlns="http://www.w3.org/2000/svg" viewBox="0 0 473 442"><title>consentua-lock-black</title><path d="M387.52,204.51c0-7.52,0-7.6-7.41-7.61-2.84,0-4.68,0-4.81-3.92-.45-13.54-1.14-27.09-2.15-40.6-1.78-23.79-5-47.34-13.28-69.93-15.12-41.48-43.21-68.64-87-77.91A215.12,215.12,0,0,0,192.53,3.1c-41.27,6.88-70.92,29-86.39,68.58C96,97.62,95.61,125,94.57,152.29c-.11,2.88,1.67,2.68,3.56,2.68,26.78,0,53.56,0,80.34,0,3,0,3.69-1.11,3.72-3.85.07-6.59.24-13.2.73-19.77,1.07-14.28,3.44-28.25,8.67-41.76,11.68-30.19,58.39-31.8,74-11.49,6.28,8.16,10.25,17.28,12.89,27.07,7.58,28,8.13,56.82,9.63,85.54.27,5.18-1.22,6.22-6.14,6.21-63.46-.17-126.93-.06-190.39-.21-4.57,0-6.25.74-6.24,5.88q.28,116.65,0,233.31c0,4.89,1.27,6.06,6.09,6,48.42-.19,96.85-.12,145.27-.12,48.24,0,96.48-.09,144.72.13,5.23,0,6.17-1.56,6.16-6.38Q387.41,320.06,387.52,204.51ZM285.8,375.17c-5.7,13.67-15.86,22.07-30.36,25.22a81,81,0,0,1-38.1-.72c-18.34-4.79-28.49-17.88-32.09-35.49a240.5,240.5,0,0,1-.21-96.6c5.32-26.2,22.34-39.19,49.11-40,10.68-.31,21.29.27,31.15,5,15.15,7.33,22,20.29,24.09,36.28.66,5.08.69,10.23,1.16,15.34.26,2.72-.39,3.86-3.46,3.79-9.16-.2-18.34-.17-27.5,0-2.76,0-3.26-1-3.34-3.49-.23-6.77-.64-13.55-3-20-2.64-7.4-7.77-11.16-15.68-11.54s-13.26,2.8-16.53,10.17c-3.94,8.88-4.71,18.43-5.17,27.93-.4,8.41-.08,16.85-.08,25.27-.11,15.52-1,31.18,3.33,46.36,3.12,11,8.21,14.78,18.84,14.57,6.95-.14,11.82-3.21,14.67-9.58,4.05-9.08,4.92-18.72,4.89-28.46,0-3.46.71-4.83,4.49-4.71,8.61.28,17.23.08,25.85.1,2,0,4.21-.5,4.1,2.79C291.57,350.3,290.83,363.1,285.8,375.17Z"/></svg>