<?xml version="1.0" encoding="utf-8"?>
<!-- Generator: Adobe Illustrator 22.0.1, SVG Export Plug-In . SVG Version: 6.00 Build 0)  -->
<svg version="1.1" id="Layer_1" xmlns="http://www.w3.org/2000/svg" xmlns:xlink="http://www.w3.org/1999/xlink" x="0px" y="0px"
	 viewBox="0 0 751.3 117.6" style="enable-background:new 0 0 751.3 117.6;" xml:space="preserve">
<style type="text/css">
	.st0{fill:#FFFFFF;}
</style>
<title>consentua-logo-white</title>
<path class="st0" d="M51.1,87.9c-0.5,3.1-1.5,6.1-3,8.8c-1,1.9-2.6,3.3-4.6,4.2c-1.8,0.7-3.7,1-5.7,1c-2.3,0-4.5-0.5-6.5-1.5
	c-1.9-1-3.4-3-4.6-5.9c-1.5-4-2.4-8.1-2.7-12.4c-0.7-7-1-14-0.9-21c0-8.1,0.2-15,0.6-20.6c0.3-4.6,1-9.2,2.2-13.6
	c1.1-3.5,2.5-6,4.4-7.5c2-1.6,4.5-2.4,7.1-2.3c5.2,0,8.8,1.9,10.8,5.7c2,3.8,3,9.9,3,18.2h23c0-4.5-0.3-8.9-0.9-13.4
	c-0.6-4.7-2.1-9.2-4.4-13.3C66.5,9.9,62.8,6.4,58.4,4c-4.8-2.7-11.2-4-19.5-4c-8.6,0-15.5,1.5-20.7,4.4c-5,2.8-9.1,7.1-11.8,12.3
	c-2.9,5.9-4.7,12.3-5.3,18.8c-0.8,8-1.2,16-1.2,24c0,8,0.4,16,1.2,24c0.6,6.5,2.4,12.9,5.3,18.8c2.6,5.1,6.7,9.3,11.8,12
	c5.1,2.8,12,4.2,20.7,4.2c7.6,0,13.8-1.2,18.5-3.5c4.5-2.2,8.4-5.5,11.1-9.8c2.7-4.5,4.6-9.4,5.4-14.6c1-5.8,1.5-11.7,1.4-17.6H52.2
	C52.3,77.9,52,82.9,51.1,87.9z"/>
<path class="st0" d="M145.8,39.4c-2.5-3.8-6.2-6.8-10.4-8.6c-4.4-1.9-9.9-2.7-16.5-2.6c-6.3,0-11.6,1-15.9,3
	c-4.2,1.9-7.8,4.9-10.5,8.7c-2.9,4.3-4.8,9.1-5.8,14.1c-1.2,6.4-1.8,13-1.8,19.6c-0.1,6.6,0.5,13.3,1.6,19.8
	c0.8,5.1,2.7,9.9,5.5,14.3c2.5,3.8,6.2,6.7,10.4,8.3c4.4,1.8,9.9,2.6,16.5,2.5c5.4,0.2,10.9-0.8,16-2.7c4.2-1.7,7.9-4.7,10.5-8.4
	c2.9-4.3,4.8-9.1,5.8-14.2c1.2-6.4,1.8-13,1.8-19.5c0.1-6.7-0.5-13.3-1.6-19.9C150.5,48.6,148.6,43.8,145.8,39.4z M128.2,96.8
	c-1.7,4.7-4.8,7.1-9.3,7.1c-2.3,0.1-4.6-0.7-6.4-2.2c-1.7-1.7-3-3.9-3.6-6.3c-0.9-3.1-1.4-6.4-1.5-9.6c-0.2-3.7-0.3-7.8-0.3-12.2
	c0-4.4,0.1-8.4,0.3-12.2c0.1-3.3,0.6-6.5,1.5-9.6c0.6-2.4,1.9-4.5,3.6-6.3c1.8-1.6,4.1-2.4,6.4-2.2c4.5,0,7.6,2.4,9.3,7
	c1.7,4.7,2.6,12.4,2.6,23.2C130.8,84.4,129.9,92.1,128.2,96.8z"/>
<path class="st0" d="M208.2,28.2c-4.5-0.1-8.9,1-12.8,3c-3.9,2.1-7.1,5.4-9.1,9.4h-0.3V30.5h-21.2v86.2h22.1V59.5
	c0-9.5,3.9-14.3,11.7-14.3c3.3,0,5.7,0.9,7.2,2.6c1.5,1.8,2.2,4.9,2.2,9.4v59.5h22.1V52.7c0-8.7-1.9-14.9-5.7-18.8
	S215.2,28.2,208.2,28.2z"/>
<path class="st0" d="M285.9,67.2l-13.3-4.5c-3.7-1.2-6.3-2.6-7.6-4.3c-1.3-1.6-2-3.7-2-5.8c0-3.1,1-5.4,3.1-7
	c2.1-1.6,4.7-2.4,7.3-2.3c3.6,0,6.2,1,7.6,3.1c1.4,2.1,2.2,5.4,2.2,9.9H303v-3.5c0-7.8-2.4-13.8-7.2-18.1
	c-4.8-4.3-12.2-6.4-22.3-6.4c-4.9-0.1-9.8,0.6-14.5,2.1c-3.6,1.2-7,3.1-9.9,5.6c-2.5,2.3-4.4,5.1-5.6,8.3c-1.2,3.2-1.8,6.6-1.8,10
	c0,6.1,1.6,11.1,4.6,15c3.1,3.9,7.7,6.9,13.8,9.1l15.5,5.6c2.1,0.8,4,2,5.6,3.4c1.7,1.7,2.6,4,2.4,6.3c0,3.4-1,6-3,7.7
	c-2.3,1.8-5.2,2.7-8.2,2.6c-3.7,0-6.6-1.2-8.6-3.4c-2.1-2.5-3.1-5.8-3-9.1v-2.9h-19.8v3c0,3.8,0.4,7.6,1.4,11.3
	c0.9,3.2,2.6,6.2,5,8.6c2.8,2.6,6.1,4.4,9.8,5.3c5,1.3,10.3,1.9,15.5,1.8c4.3,0,8.7-0.4,12.9-1.4c3.7-0.9,7.1-2.5,10.1-4.8
	c2.8-2.3,5.1-5.1,6.6-8.4c1.7-3.7,2.6-7.8,2.5-11.9c0-6.5-1.4-11.7-4.3-15.5C297.8,72.6,292.9,69.5,285.9,67.2z"/>
<path class="st0" d="M372.6,40.1c-2.3-3.8-5.7-6.8-9.7-8.8c-4.1-2.1-9.4-3.1-15.8-3.1c-7.5,0-13.5,1.2-18,3.7
	c-4.3,2.3-7.9,5.7-10.3,9.9c-2.5,4.4-4.1,9.2-4.8,14.3c-0.8,5.5-1.2,11.1-1.2,16.7c0,5.4,0.2,10.9,0.7,16.3
	c0.4,5.1,1.7,10.1,3.9,14.7c2.2,4.4,5.6,8.1,9.9,10.6c4.5,2.7,10.7,4,18.8,4c10.6,0,18.3-2.6,23.2-7.8s7.6-12.9,8-22.9h-19.8
	c-0.7,5.4-1.8,9.5-3.5,12.2c-1.7,2.7-4.4,4-8.2,4c-1.9,0.1-3.7-0.5-5.1-1.7c-1.5-1.2-2.6-2.7-3.4-4.5c-0.9-2-1.5-4.2-1.8-6.4
	c-0.4-2.5-0.6-5-0.6-7.4v-6.9h43.8V72c0-6-0.4-12-1.3-18C376.7,49.1,375.1,44.4,372.6,40.1z M334.9,63.8v-3.4c0-2,0.2-4.1,0.6-6.1
	c0.3-1.9,1-3.8,1.8-5.5c0.8-1.6,2-3,3.4-4c1.6-1.1,3.6-1.6,5.5-1.5c1.9-0.1,3.9,0.4,5.5,1.4c1.5,1,2.7,2.4,3.4,4
	c0.9,2,1.4,4.2,1.7,6.4c0.3,2.5,0.5,5.4,0.6,8.7L334.9,63.8z"/>
<path class="st0" d="M433.6,28.2c-4.5-0.1-8.9,1-12.8,3c-3.9,2.1-7.1,5.4-9.1,9.4h-0.3V30.5h-21.1v86.2h22.1V59.5
	c0-9.5,3.9-14.3,11.7-14.3c3.3,0,5.7,0.9,7.2,2.6s2.2,4.9,2.2,9.4v59.5h22.1V52.7c0-8.7-1.9-14.9-5.7-18.8
	C446.1,30.1,440.7,28.2,433.6,28.2z"/>
<path class="st0" d="M497.3,5.8h-22.1v24.7h-11.2v15.1h11.2v49.4c-0.1,3.6,0.2,7.3,0.8,10.9c0.4,2.6,1.4,5,3,7
	c1.6,1.9,3.8,3.1,6.3,3.5c3.5,0.7,7,0.9,10.5,0.9c2.6,0,5-0.1,7.3-0.2s4.7-0.2,7.1-0.2v-15.4c-0.7,0.1-1.5,0.2-2.4,0.2
	c-0.9,0.1-1.7,0.1-2.6,0.1c-3.2,0-5.3-0.7-6.3-2.2s-1.5-3.9-1.5-7.3V45.5h12.8V30.5h-12.9V5.8z"/>
<path class="st0" d="M561,87.7c0,9.5-3.9,14.3-11.7,14.3c-3.3,0-5.7-0.9-7.2-2.6c-1.5-1.8-2.2-4.9-2.2-9.4V30.5h-22.1v63.9
	c0,8.7,1.9,14.8,5.7,18.5c3.8,3.7,9.2,5.5,16.3,5.5c4.4,0.1,8.8-0.8,12.8-2.7c3.9-2,7.1-5.2,9.1-9.1h0.3v10.1h21.2V30.5H561V87.7z"
	/>
<path class="st0" d="M659.3,100V54.7c0-3.6-0.4-7.2-1.2-10.7c-0.7-3.2-2.3-6.1-4.6-8.4c-2.6-2.6-5.9-4.5-9.5-5.5
	c-4.1-1.3-9.4-1.9-16-1.9c-4,0-7.9,0.4-11.8,1.4c-3.5,0.8-6.8,2.3-9.6,4.5c-2.8,2.2-5,5-6.5,8.2c-1.7,4-2.5,8.3-2.4,12.6v2.1h19.9
	v-2.4c-0.2-2.9,0.8-5.8,2.6-8.2c1.7-2,4.3-3,7.7-3c3.7,0,6.4,0.9,7.9,2.8c1.5,1.9,2.3,4.5,2.3,7.8c0,2.9-0.6,5.1-1.9,6.6
	s-3.6,2.7-6.9,3.5l-12.5,3.4c-3.4,0.9-6.7,2.1-9.8,3.6c-2.6,1.3-4.9,3-6.7,5.2c-1.8,2.2-3.2,4.8-3.9,7.5c-0.9,3.4-1.4,6.9-1.3,10.5
	c0,2.9,0.4,5.9,1.1,8.7c0.7,2.8,1.9,5.5,3.5,7.9c1.6,2.4,3.8,4.3,6.4,5.5c3.1,1.4,6.4,2.1,9.8,2c4.4,0.1,8.9-0.5,13.1-2
	c3.3-1.3,6.3-4.2,8.9-8.7h0.3c0.3,1.5,0.7,3,1,4.6c0.4,1.5,0.9,3,1.7,4.4H662c-1-2.3-1.7-4.7-2.2-7.2
	C659.4,106.3,659.2,103.2,659.3,100z M638.1,90.5c0.1,2.1-0.4,4.2-1.3,6.1c-0.8,1.6-1.9,3-3.3,4.2c-1.3,1.1-2.8,1.8-4.4,2.3
	c-1.5,0.5-3.1,0.7-4.7,0.7c-2.6,0.2-5.2-1.2-6.4-3.5c-1.3-2.6-2-5.5-1.9-8.5c0-3.8,1-6.9,2.9-9.1c1.9-2.2,5.1-3.8,9.6-4.8
	c1.6-0.4,3.1-0.9,4.7-1.5c1.7-0.7,3.3-1.6,4.8-2.8L638.1,90.5z"/>
<path class="st0" d="M748.1,52c-0.2-5.8-0.5-11.3-1.1-16.5c-0.6-6.6-2.4-12.9-5.3-18.8c-2.6-5.1-6.7-9.4-11.7-12.3
	C724.8,1.5,717.9,0,709.3,0c-8.2,0-14.7,1.3-19.5,4c-4.4,2.4-8.1,5.9-10.7,10.2c-2.3,4.1-3.8,8.6-4.4,13.3
	c-0.6,4.4-0.9,8.9-0.9,13.4H697c0-8.3,1-14.4,3-18.2s5.6-5.7,10.7-5.7c2.6-0.1,5.1,0.7,7.1,2.3c1.9,1.5,3.3,4.1,4.4,7.5
	c1.2,4.4,2,9,2.2,13.6c0.3,3.4,0.4,7.2,0.5,11.5h-53.6v64.7h79.8V52H748.1z M714.2,79.3v12.4c0,2-1.6,3.7-3.7,3.7
	c-2,0-3.7-1.6-3.7-3.7V79.3c-3.8-2-5.2-6.7-3.1-10.5c2-3.8,6.7-5.2,10.5-3.1s5.2,6.7,3.1,10.5C716.7,77.5,715.6,78.6,714.2,79.3z"/>
</svg>
