<svg xmlns="http://www.w3.org/2000/svg" viewBox="0 0 445.43 491.37"><defs><style>.cls-1{fill:#fff;}</style></defs><title>a</title><g id="Layer_2" data-name="Layer 2"><g id="Layer_2-2" data-name="Layer 2"><path class="cls-1" d="M246.94,54.91H418.87v80.42l-185.79-.55c-.55,11.09-1.66,21.63-2.77,31.61,81-1.66,175.81,38.27,204.65,125.34C455.47,353.28,446,425.38,405,491.37l-108.7-41.6,22.18-56.57L351.21,406c8.87-29.39,8.87-60.45.55-86.52-17.19-52.69-70.43-74.32-124.23-71.54,1.11,34.94,5,66.55,11.09,93.73,7.76-12.2,14.42-23.29,22.18-36.6l72.65,37.71c-53.24,102.6-124.78,140.87-191.89,140.87-58.23,0-119.24-28.84-136.43-91C-7.62,348.29,4,296.71,32.87,257.33c28.28-36,67.66-61,111.47-77.09.55-14.42,2.22-29.95,3.88-45.48H10.13V54.91H159.32c1.11-5,2.77-10,3.33-15L171,0,253.6,15.53ZM88.88,370.47c9.43,32.72,51.58,36,78.2,27.18a491.26,491.26,0,0,1-23.29-125.89,132.4,132.4,0,0,0-41.59,37.16C88.88,326.1,82.78,351.06,88.88,370.47Z"/></g></g></svg>