<svg xmlns="http://www.w3.org/2000/svg" viewBox="0 0 500 500"><defs><style>.cls-1{fill:#fff;}.cls-2{fill:none;}</style></defs><title>check</title><g id="Layer_2" data-name="Layer 2"><g id="Layer_2-2" data-name="Layer 2"><path class="cls-1" d="M395.83,41.67H308.75C300,17.5,277.08,0,250,0s-50,17.5-58.75,41.67H104.17A41.79,41.79,0,0,0,62.5,83.33V416.67a41.79,41.79,0,0,0,41.67,41.67H395.83a41.79,41.79,0,0,0,41.67-41.67V83.33A41.79,41.79,0,0,0,395.83,41.67ZM250,41.67A20.83,20.83,0,1,1,229.17,62.5,20.89,20.89,0,0,1,250,41.67Zm145.83,375H104.17V83.33h41.67v62.5H354.17V83.33h41.67Z"/><path class="cls-2" d="M0,0H500V500H0Z"/><path class="cls-2" d="M104,118H382V396H104Z"/><path class="cls-1" d="M212.88,305.3,164.57,257l-16.45,16.33,64.75,64.75,139-139-16.33-16.33Z"/></g></g></svg>