<svg xmlns="http://www.w3.org/2000/svg" viewBox="0 0 473.14 500"><defs><style>.cls-1{fill:#fff;}</style></defs><title>key</title><g id="Layer_2" data-name="Layer 2"><g id="Layer_2-2" data-name="Layer 2"><polygon class="cls-1" points="87.15 361.75 106.12 361.75 96.83 335.27 87.15 361.75"/><path class="cls-1" d="M169.6,334.71a7.91,7.91,0,0,0-2.89-2.13,8.47,8.47,0,0,0-3.37-.71H148.73v21.82h15.18a7.5,7.5,0,0,0,6-2.94,12.17,12.17,0,0,0,2.42-8,13.14,13.14,0,0,0-.76-4.6A11.21,11.21,0,0,0,169.6,334.71Z"/><path class="cls-1" d="M422.19,8.64C409.07,21.76,239.38,196,239.38,196a6.24,6.24,0,0,1-8.42.46l-24-19.72a4.82,4.82,0,0,0-7.8,2.85L191.22,223c-51.15-19.55-110.41-9.42-150.69,30.86C-14.64,309-13.32,399.74,43.47,456.53s147.55,58.1,202.72,2.93c42.17-42.17,51.3-105.12,27.92-157.81l44.52-13.24a3.83,3.83,0,0,0,1.56-6.43l-33.85-32.5,34-34H355.8V168.15a5.11,5.11,0,0,1,5.11-5.11h42.75l15.44-13.9V98.19l34-1.54L471.6,75l1.54-71S460-7.57,422.19,8.64ZM114.76,387.75,108.5,371H85L78.8,387.75H65.32L91,320.38h11.58l25.62,67.37Zm69.36-36.67a23,23,0,0,1-4.27,7.16,21,21,0,0,1-6.64,5,19.2,19.2,0,0,1-8.54,1.9H148.73v22.58H135.63V320.38H164.2a19.13,19.13,0,0,1,8.59,1.95,22.24,22.24,0,0,1,6.78,5.12,24.22,24.22,0,0,1,4.46,7.21,21.73,21.73,0,0,1,1.61,8.11A23.39,23.39,0,0,1,184.12,351.07Zm23.72,36.67H194.75V320.38h13.09Z"/></g></g></svg>